<svg width="28" height="28" viewBox="0 0 28 28" fill="none" xmlns="http://www.w3.org/2000/svg">
<path d="M9.64725 0.63501H3.56191C2.71371 0.638002 1.9011 0.976275 1.30133 1.57605C0.701556 2.17582 0.363282 2.98843 0.360291 3.83663V9.92197C0.363282 10.7702 0.701556 11.5828 1.30133 12.1826C1.9011 12.7823 2.71371 13.1206 3.56191 13.1236H9.64725C10.4955 13.1206 11.3081 12.7823 11.9078 12.1826C12.5076 11.5828 12.8459 10.7702 12.8489 9.92197V3.83663C12.8459 2.98843 12.5076 2.17582 11.9078 1.57605C11.3081 0.976275 10.4955 0.638002 9.64725 0.63501ZM10.5782 9.92197C10.5782 10.1689 10.4801 10.4057 10.3055 10.5803C10.131 10.7549 9.89416 10.8529 9.64725 10.8529H3.56191C3.315 10.8529 3.0782 10.7549 2.90361 10.5803C2.72902 10.4057 2.63094 10.1689 2.63094 9.92197V3.83663C2.63094 3.58972 2.72902 3.35292 2.90361 3.17833C3.0782 3.00374 3.315 2.90566 3.56191 2.90566H9.64725C9.89416 2.90566 10.131 3.00374 10.3055 3.17833C10.4801 3.35292 10.5782 3.58972 10.5782 3.83663V9.92197Z" fill="white"/>
<path d="M24.4065 0.634644H18.3211C17.4729 0.637635 16.6603 0.975909 16.0605 1.57568C15.4608 2.17545 15.1225 2.98806 15.1195 3.83626V9.9216C15.1225 10.7698 15.4608 11.5824 16.0605 12.1822C16.6603 12.782 17.4729 13.1202 18.3211 13.1232H24.4065C25.2547 13.1202 26.0673 12.782 26.667 12.1822C27.2668 11.5824 27.6051 10.7698 27.6081 9.9216V3.83626C27.6051 2.98806 27.2668 2.17545 26.667 1.57568C26.0673 0.975909 25.2547 0.637635 24.4065 0.634644ZM25.3374 9.9216C25.3374 10.1685 25.2393 10.4053 25.0648 10.5799C24.8902 10.7545 24.6534 10.8526 24.4065 10.8526H18.3211C18.0742 10.8526 17.8374 10.7545 17.6628 10.5799C17.4882 10.4053 17.3902 10.1685 17.3902 9.9216V3.83626C17.3902 3.58935 17.4882 3.35256 17.6628 3.17797C17.8374 3.00338 18.0742 2.90529 18.3211 2.90529H24.4065C24.6534 2.90529 24.8902 3.00338 25.0648 3.17797C25.2393 3.35256 25.3374 3.58935 25.3374 3.83626V9.9216Z" fill="white"/>
<path d="M9.64725 15.3939H3.56191C2.71371 15.3969 1.9011 15.7352 1.30133 16.335C0.701556 16.9347 0.363282 17.7473 0.360291 18.5955V24.6809C0.363282 25.5291 0.701556 26.3417 1.30133 26.9415C1.9011 27.5412 2.71371 27.8795 3.56191 27.8825H9.64725C10.4955 27.8795 11.3081 27.5412 11.9078 26.9415C12.5076 26.3417 12.8459 25.5291 12.8489 24.6809V18.5955C12.8459 17.7473 12.5076 16.9347 11.9078 16.335C11.3081 15.7352 10.4955 15.3969 9.64725 15.3939ZM10.5782 24.6809C10.5782 24.9278 10.4801 25.1646 10.3055 25.3392C10.131 25.5138 9.89416 25.6118 9.64725 25.6118H3.56191C3.315 25.6118 3.0782 25.5138 2.90361 25.3392C2.72902 25.1646 2.63094 24.9278 2.63094 24.6809V18.5955C2.63094 18.3486 2.72902 18.1118 2.90361 17.9372C3.0782 17.7627 3.315 17.6646 3.56191 17.6646H9.64725C9.89416 17.6646 10.131 17.7627 10.3055 17.9372C10.4801 18.1118 10.5782 18.3486 10.5782 18.5955V24.6809Z" fill="white"/>
<path d="M24.4065 15.3939H18.3211C17.4729 15.3969 16.6603 15.7352 16.0605 16.335C15.4608 16.9347 15.1225 17.7473 15.1195 18.5955V24.6809C15.1225 25.5291 15.4608 26.3417 16.0605 26.9415C16.6603 27.5412 17.4729 27.8795 18.3211 27.8825H24.4065C25.2547 27.8795 26.0673 27.5412 26.667 26.9415C27.2668 26.3417 27.6051 25.5291 27.6081 24.6809V18.5955C27.6051 17.7473 27.2668 16.9347 26.667 16.335C26.0673 15.7352 25.2547 15.3969 24.4065 15.3939ZM25.3374 24.6809C25.3374 24.9278 25.2393 25.1646 25.0648 25.3392C24.8902 25.5138 24.6534 25.6118 24.4065 25.6118H18.3211C18.0742 25.6118 17.8374 25.5138 17.6628 25.3392C17.4882 25.1646 17.3902 24.9278 17.3902 24.6809V18.5955C17.3902 18.3486 17.4882 18.1118 17.6628 17.9372C17.8374 17.7627 18.0742 17.6646 18.3211 17.6646H24.4065C24.6534 17.6646 24.8902 17.7627 25.0648 17.9372C25.2393 18.1118 25.3374 18.3486 25.3374 18.5955V24.6809Z" fill="white"/>
</svg>
