<svg width="389" height="283" viewBox="0 0 389 283" fill="none" xmlns="http://www.w3.org/2000/svg">
<path opacity="0.404436" fill-rule="evenodd" clip-rule="evenodd" d="M205.784 6.19336L309.576 56.3383L335.211 169.013L263.384 259.371H148.183L76.3568 169.013L101.991 56.3383L205.784 6.19336Z" fill="#F0F3FF"/>
<path fill-rule="evenodd" clip-rule="evenodd" d="M209.19 47.0649L152.911 83.5689L118.364 154.353L174.628 203.442L255.49 228.868L284.952 146.346L255.49 99.2899L209.19 47.0649Z" fill="url(#paint0_linear)" fill-opacity="0.05" stroke="#0272FA" stroke-width="1.81652"/>
<path fill-rule="evenodd" clip-rule="evenodd" d="M208.622 52.7417C210.817 52.7417 212.596 50.9627 212.596 48.7681C212.596 46.5735 210.817 44.7944 208.622 44.7944C206.427 44.7944 204.648 46.5735 204.648 48.7681C204.648 50.9627 206.427 52.7417 208.622 52.7417Z" fill="#0272FA"/>
<path fill-rule="evenodd" clip-rule="evenodd" d="M152.842 89.0366C155.037 89.0366 156.816 87.2576 156.816 85.063C156.816 82.8684 155.037 81.0894 152.842 81.0894C150.648 81.0894 148.869 82.8684 148.869 85.063C148.869 87.2576 150.648 89.0366 152.842 89.0366Z" fill="#0272FA"/>
<path fill-rule="evenodd" clip-rule="evenodd" d="M118.931 158.327C121.126 158.327 122.905 156.548 122.905 154.353C122.905 152.159 121.126 150.38 118.931 150.38C116.737 150.38 114.958 152.159 114.958 154.353C114.958 156.548 116.737 158.327 118.931 158.327Z" fill="#0272FA"/>
<path fill-rule="evenodd" clip-rule="evenodd" d="M175.428 208.65C177.623 208.65 179.402 206.871 179.402 204.676C179.402 202.482 177.623 200.703 175.428 200.703C173.234 200.703 171.455 202.482 171.455 204.676C171.455 206.871 173.234 208.65 175.428 208.65Z" fill="#0272FA"/>
<path fill-rule="evenodd" clip-rule="evenodd" d="M255.17 232.123C257.365 232.123 259.144 230.344 259.144 228.149C259.144 225.955 257.365 224.176 255.17 224.176C252.976 224.176 251.197 225.955 251.197 228.149C251.197 230.344 252.976 232.123 255.17 232.123Z" fill="#0272FA"/>
<path fill-rule="evenodd" clip-rule="evenodd" d="M283.749 150.98C285.943 150.98 287.722 149.201 287.722 147.006C287.722 144.812 285.943 143.033 283.749 143.033C281.554 143.033 279.775 144.812 279.775 147.006C279.775 149.201 281.554 150.98 283.749 150.98Z" fill="#0272FA"/>
<path fill-rule="evenodd" clip-rule="evenodd" d="M256.306 103.831C258.5 103.831 260.279 102.052 260.279 99.8577C260.279 97.6631 258.5 95.884 256.306 95.884C254.111 95.884 252.332 97.6631 252.332 99.8577C252.332 102.052 254.111 103.831 256.306 103.831Z" fill="#0272FA"/>
<path d="M213.572 265.093C213.572 263.549 213.92 262.164 214.617 260.938C215.313 259.696 216.259 258.728 217.455 258.031C218.666 257.335 220.006 256.987 221.474 256.987C223.2 256.987 224.706 257.403 225.993 258.236C227.279 259.068 228.218 260.249 228.808 261.778H226.333C225.894 260.824 225.258 260.09 224.426 259.575C223.608 259.061 222.624 258.803 221.474 258.803C220.369 258.803 219.377 259.061 218.499 259.575C217.621 260.09 216.933 260.824 216.433 261.778C215.934 262.716 215.684 263.821 215.684 265.093C215.684 266.349 215.934 267.454 216.433 268.408C216.933 269.347 217.621 270.073 218.499 270.588C219.377 271.103 220.369 271.36 221.474 271.36C222.624 271.36 223.608 271.11 224.426 270.611C225.258 270.096 225.894 269.362 226.333 268.408H228.808C228.218 269.922 227.279 271.095 225.993 271.928C224.706 272.745 223.2 273.154 221.474 273.154C220.006 273.154 218.666 272.813 217.455 272.132C216.259 271.436 215.313 270.474 214.617 269.248C213.92 268.022 213.572 266.637 213.572 265.093ZM233.95 262.595C234.314 261.884 234.828 261.331 235.494 260.938C236.176 260.544 237.001 260.347 237.969 260.347V262.482H237.424C235.108 262.482 233.95 263.738 233.95 266.251V273.018H231.884V260.574H233.95V262.595ZM251.708 266.319C251.708 266.713 251.685 267.129 251.64 267.568H241.694C241.77 268.794 242.186 269.755 242.943 270.452C243.715 271.133 244.646 271.474 245.736 271.474C246.629 271.474 247.371 271.269 247.961 270.86C248.567 270.437 248.991 269.877 249.233 269.18H251.458C251.125 270.376 250.459 271.352 249.46 272.109C248.461 272.851 247.22 273.222 245.736 273.222C244.555 273.222 243.496 272.957 242.557 272.427C241.634 271.897 240.907 271.148 240.377 270.179C239.848 269.195 239.583 268.06 239.583 266.773C239.583 265.487 239.84 264.359 240.355 263.39C240.869 262.421 241.588 261.679 242.512 261.165C243.45 260.635 244.525 260.37 245.736 260.37C246.917 260.37 247.961 260.627 248.87 261.142C249.778 261.657 250.474 262.368 250.959 263.276C251.458 264.17 251.708 265.184 251.708 266.319ZM249.573 265.888C249.573 265.101 249.399 264.427 249.051 263.867C248.703 263.292 248.226 262.86 247.621 262.573C247.03 262.27 246.372 262.118 245.645 262.118C244.601 262.118 243.708 262.451 242.966 263.118C242.239 263.784 241.823 264.707 241.717 265.888H249.573ZM253.663 266.751C253.663 265.479 253.921 264.366 254.435 263.413C254.95 262.444 255.654 261.695 256.547 261.165C257.455 260.635 258.462 260.37 259.567 260.37C260.657 260.37 261.603 260.605 262.405 261.074C263.208 261.543 263.806 262.134 264.199 262.845V260.574H266.288V273.018H264.199V270.702C263.79 271.428 263.177 272.034 262.36 272.518C261.558 272.987 260.619 273.222 259.544 273.222C258.439 273.222 257.44 272.949 256.547 272.405C255.654 271.86 254.95 271.095 254.435 270.111C253.921 269.127 253.663 268.007 253.663 266.751ZM264.199 266.773C264.199 265.835 264.01 265.017 263.631 264.321C263.253 263.625 262.738 263.095 262.087 262.732C261.452 262.353 260.748 262.164 259.976 262.164C259.204 262.164 258.5 262.346 257.864 262.709C257.228 263.072 256.721 263.602 256.343 264.298C255.964 264.995 255.775 265.812 255.775 266.751C255.775 267.704 255.964 268.537 256.343 269.248C256.721 269.945 257.228 270.482 257.864 270.86C258.5 271.224 259.204 271.405 259.976 271.405C260.748 271.405 261.452 271.224 262.087 270.86C262.738 270.482 263.253 269.945 263.631 269.248C264.01 268.537 264.199 267.712 264.199 266.773ZM272.3 262.277V269.612C272.3 270.217 272.429 270.649 272.686 270.906C272.944 271.148 273.39 271.269 274.026 271.269H275.547V273.018H273.685C272.535 273.018 271.672 272.753 271.097 272.223C270.522 271.693 270.234 270.823 270.234 269.612V262.277H268.622V260.574H270.234V257.441H272.3V260.574H275.547V262.277H272.3ZM279.118 258.554C278.725 258.554 278.392 258.417 278.119 258.145C277.847 257.872 277.71 257.539 277.71 257.146C277.71 256.752 277.847 256.419 278.119 256.147C278.392 255.874 278.725 255.738 279.118 255.738C279.497 255.738 279.815 255.874 280.072 256.147C280.344 256.419 280.481 256.752 280.481 257.146C280.481 257.539 280.344 257.872 280.072 258.145C279.815 258.417 279.497 258.554 279.118 258.554ZM280.117 260.574V273.018H278.051V260.574H280.117ZM288.271 271.11L292.131 260.574H294.334L289.452 273.018H287.045L282.163 260.574H284.388L288.271 271.11ZM297.434 258.554C297.041 258.554 296.708 258.417 296.435 258.145C296.163 257.872 296.026 257.539 296.026 257.146C296.026 256.752 296.163 256.419 296.435 256.147C296.708 255.874 297.041 255.738 297.434 255.738C297.813 255.738 298.131 255.874 298.388 256.147C298.66 256.419 298.797 256.752 298.797 257.146C298.797 257.539 298.66 257.872 298.388 258.145C298.131 258.417 297.813 258.554 297.434 258.554ZM298.433 260.574V273.018H296.367V260.574H298.433ZM304.475 262.277V269.612C304.475 270.217 304.604 270.649 304.861 270.906C305.119 271.148 305.565 271.269 306.201 271.269H307.722V273.018H305.86C304.71 273.018 303.847 272.753 303.272 272.223C302.697 271.693 302.409 270.823 302.409 269.612V262.277H300.797V260.574H302.409V257.441H304.475V260.574H307.722V262.277H304.475ZM320.943 260.574L313.45 278.876H311.316L313.768 272.881L308.75 260.574H311.043L314.949 270.656L318.809 260.574H320.943Z" fill="black" fill-opacity="0.8"/>
<path d="M304.203 143.604C304.203 142.369 304.481 141.261 305.038 140.28C305.596 139.287 306.352 138.512 307.309 137.955C308.278 137.398 309.35 137.119 310.524 137.119C311.905 137.119 313.11 137.452 314.139 138.118C315.169 138.784 315.919 139.729 316.392 140.952H314.412C314.061 140.189 313.552 139.602 312.886 139.19C312.232 138.778 311.445 138.572 310.524 138.572C309.64 138.572 308.847 138.778 308.145 139.19C307.442 139.602 306.891 140.189 306.492 140.952C306.092 141.703 305.892 142.587 305.892 143.604C305.892 144.609 306.092 145.493 306.492 146.256C306.891 147.007 307.442 147.588 308.145 148C308.847 148.412 309.64 148.618 310.524 148.618C311.445 148.618 312.232 148.418 312.886 148.018C313.552 147.607 314.061 147.019 314.412 146.256H316.392C315.919 147.467 315.169 148.406 314.139 149.072C313.11 149.726 311.905 150.053 310.524 150.053C309.35 150.053 308.278 149.78 307.309 149.235C306.352 148.678 305.596 147.909 305.038 146.928C304.481 145.948 304.203 144.839 304.203 143.604ZM327.681 139.989V149.944H326.028V148.472C325.713 148.981 325.271 149.381 324.702 149.671C324.145 149.95 323.527 150.089 322.849 150.089C322.074 150.089 321.377 149.932 320.76 149.617C320.142 149.29 319.652 148.805 319.288 148.164C318.937 147.522 318.762 146.741 318.762 145.82V139.989H320.396V145.602C320.396 146.583 320.645 147.34 321.141 147.873C321.638 148.394 322.316 148.654 323.176 148.654C324.06 148.654 324.756 148.382 325.265 147.837C325.773 147.292 326.028 146.499 326.028 145.457V139.989H327.681ZM332.125 141.606C332.415 141.037 332.827 140.595 333.36 140.28C333.905 139.965 334.565 139.808 335.34 139.808V141.515H334.904C333.051 141.515 332.125 142.52 332.125 144.531V149.944H330.472V139.989H332.125V141.606ZM338.102 138.373C337.787 138.373 337.521 138.264 337.303 138.046C337.085 137.828 336.976 137.561 336.976 137.246C336.976 136.932 337.085 136.665 337.303 136.447C337.521 136.229 337.787 136.12 338.102 136.12C338.405 136.12 338.659 136.229 338.865 136.447C339.083 136.665 339.192 136.932 339.192 137.246C339.192 137.561 339.083 137.828 338.865 138.046C338.659 138.264 338.405 138.373 338.102 138.373ZM338.901 139.989V149.944H337.248V139.989H338.901ZM346.06 150.107C345.128 150.107 344.28 149.895 343.517 149.472C342.766 149.048 342.173 148.448 341.737 147.673C341.313 146.886 341.101 145.978 341.101 144.948C341.101 143.931 341.319 143.035 341.755 142.26C342.203 141.473 342.808 140.873 343.571 140.462C344.334 140.038 345.188 139.826 346.133 139.826C347.077 139.826 347.931 140.038 348.694 140.462C349.457 140.873 350.056 141.467 350.492 142.242C350.94 143.017 351.164 143.919 351.164 144.948C351.164 145.978 350.934 146.886 350.474 147.673C350.026 148.448 349.415 149.048 348.64 149.472C347.864 149.895 347.005 150.107 346.06 150.107ZM346.06 148.654C346.653 148.654 347.211 148.515 347.731 148.236C348.252 147.958 348.67 147.54 348.985 146.983C349.312 146.426 349.475 145.748 349.475 144.948C349.475 144.149 349.318 143.471 349.003 142.914C348.688 142.357 348.276 141.945 347.768 141.679C347.259 141.4 346.708 141.261 346.115 141.261C345.509 141.261 344.952 141.4 344.443 141.679C343.947 141.945 343.547 142.357 343.244 142.914C342.942 143.471 342.79 144.149 342.79 144.948C342.79 145.76 342.936 146.444 343.226 147.001C343.529 147.558 343.929 147.976 344.425 148.254C344.922 148.521 345.467 148.654 346.06 148.654ZM356.862 150.107C356.099 150.107 355.415 149.98 354.809 149.726C354.204 149.459 353.725 149.096 353.374 148.636C353.023 148.164 352.829 147.625 352.793 147.019H354.5C354.549 147.516 354.779 147.921 355.191 148.236C355.615 148.551 356.166 148.709 356.844 148.709C357.474 148.709 357.97 148.569 358.333 148.291C358.697 148.012 358.878 147.661 358.878 147.237C358.878 146.801 358.685 146.48 358.297 146.274C357.909 146.056 357.31 145.845 356.499 145.639C355.76 145.445 355.154 145.251 354.682 145.057C354.222 144.852 353.822 144.555 353.483 144.167C353.156 143.768 352.993 143.247 352.993 142.605C352.993 142.096 353.144 141.63 353.447 141.206C353.75 140.783 354.18 140.45 354.737 140.207C355.294 139.953 355.929 139.826 356.644 139.826C357.746 139.826 358.636 140.104 359.314 140.661C359.992 141.218 360.356 141.981 360.404 142.95H358.751C358.715 142.43 358.503 142.012 358.115 141.697C357.74 141.382 357.231 141.225 356.589 141.225C355.996 141.225 355.524 141.352 355.173 141.606C354.821 141.86 354.646 142.193 354.646 142.605C354.646 142.932 354.749 143.205 354.955 143.423C355.173 143.628 355.439 143.798 355.754 143.931C356.081 144.052 356.529 144.192 357.098 144.349C357.813 144.543 358.394 144.736 358.842 144.93C359.29 145.112 359.672 145.39 359.986 145.766C360.313 146.141 360.483 146.632 360.495 147.237C360.495 147.782 360.344 148.273 360.041 148.709C359.738 149.145 359.308 149.49 358.751 149.744C358.206 149.986 357.576 150.107 356.862 150.107ZM363.682 138.373C363.367 138.373 363.101 138.264 362.883 138.046C362.665 137.828 362.556 137.561 362.556 137.246C362.556 136.932 362.665 136.665 362.883 136.447C363.101 136.229 363.367 136.12 363.682 136.12C363.985 136.12 364.239 136.229 364.445 136.447C364.663 136.665 364.772 136.932 364.772 137.246C364.772 137.561 364.663 137.828 364.445 138.046C364.239 138.264 363.985 138.373 363.682 138.373ZM364.482 139.989V149.944H362.829V139.989H364.482ZM369.315 141.352V147.219C369.315 147.703 369.418 148.049 369.624 148.254C369.83 148.448 370.187 148.545 370.696 148.545H371.913V149.944H370.423C369.503 149.944 368.813 149.732 368.352 149.308C367.892 148.884 367.662 148.188 367.662 147.219V141.352H366.372V139.989H367.662V137.483H369.315V139.989H371.913V141.352H369.315ZM382.49 139.989L376.495 154.63H374.788L376.749 149.835L372.735 139.989H374.57L377.694 148.055L380.782 139.989H382.49Z" fill="#3E3E3E"/>
<path d="M43.7511 70.3569V73.9482H47.6662V75.1042H43.7511V78.8035H48.1286V79.9595H42.3485V69.2009H48.1286V70.3569H43.7511ZM54.3663 71.3587C55.3939 71.3587 56.2262 71.6722 56.8633 72.299C57.5004 72.9155 57.819 73.8095 57.819 74.9809V79.9595H56.4317V75.1813C56.4317 74.3387 56.2211 73.6965 55.7998 73.2546C55.3785 72.8025 54.8031 72.5764 54.0735 72.5764C53.3336 72.5764 52.7428 72.8076 52.3009 73.27C51.8694 73.7324 51.6536 74.4055 51.6536 75.2892V79.9595H50.2509V71.5129H51.6536V72.7151C51.931 72.2836 52.3061 71.9496 52.7788 71.7133C53.2617 71.4769 53.7909 71.3587 54.3663 71.3587ZM61.821 72.6689V77.6475C61.821 78.0585 61.9084 78.3513 62.0831 78.526C62.2578 78.6904 62.5609 78.7726 62.9925 78.7726H64.0252V79.9595H62.7613C61.9803 79.9595 61.3946 79.7796 61.0041 79.42C60.6137 79.0604 60.4184 78.4695 60.4184 77.6475V72.6689H59.3241V71.5129H60.4184V69.3858H61.821V71.5129H64.0252V72.6689H61.821ZM69.9171 71.3587C70.5542 71.3587 71.1296 71.4975 71.6434 71.7749C72.1572 72.0421 72.5579 72.448 72.8457 72.9926C73.1437 73.5372 73.2927 74.2 73.2927 74.9809V79.9595H71.9054V75.1813C71.9054 74.3387 71.6948 73.6965 71.2735 73.2546C70.8522 72.8025 70.2767 72.5764 69.5472 72.5764C68.8073 72.5764 68.2165 72.8076 67.7746 73.27C67.343 73.7324 67.1273 74.4055 67.1273 75.2892V79.9595H65.7246V68.5535H67.1273V72.7151C67.4047 72.2836 67.7849 71.9496 68.2679 71.7133C68.7611 71.4769 69.3108 71.3587 69.9171 71.3587ZM83.0748 71.5129V79.9595H81.6722V78.711C81.405 79.1426 81.0299 79.4817 80.547 79.7283C80.0743 79.9646 79.5502 80.0828 78.9748 80.0828C78.3172 80.0828 77.7263 79.9492 77.2023 79.682C76.6782 79.4046 76.262 78.9936 75.9538 78.449C75.6558 77.9043 75.5068 77.2416 75.5068 76.4606V71.5129H76.894V76.2757C76.894 77.108 77.1046 77.7502 77.5259 78.2023C77.9472 78.6442 78.5227 78.8651 79.2523 78.8651C80.0024 78.8651 80.5932 78.6339 81.0248 78.1715C81.4564 77.7091 81.6722 77.036 81.6722 76.1523V71.5129H83.0748ZM88.4333 80.0982C87.7859 80.0982 87.2053 79.9903 86.6915 79.7745C86.1778 79.5484 85.7719 79.2402 85.4739 78.8497C85.1759 78.449 85.0115 77.9917 84.9806 77.4779H86.4295C86.4706 77.8992 86.6659 78.2434 87.0152 78.5106C87.3749 78.7778 87.8424 78.9114 88.4179 78.9114C88.9522 78.9114 89.3735 78.7932 89.6818 78.5568C89.99 78.3205 90.1442 78.0225 90.1442 77.6629C90.1442 77.2929 89.9798 77.0206 89.6509 76.8459C89.3221 76.661 88.8135 76.4812 88.125 76.3065C87.4982 76.1421 86.9844 75.9777 86.5837 75.8132C86.1932 75.6386 85.8541 75.3868 85.5664 75.058C85.2889 74.7189 85.1502 74.277 85.1502 73.7324C85.1502 73.3008 85.2786 72.9052 85.5355 72.5456C85.7924 72.1859 86.1572 71.9034 86.6299 71.6978C87.1026 71.4821 87.642 71.3742 88.2483 71.3742C89.1834 71.3742 89.9387 71.6105 90.5141 72.0832C91.0895 72.5559 91.3978 73.2032 91.4389 74.0253H90.0363C90.0054 73.5834 89.8256 73.2289 89.4968 72.9618C89.1783 72.6946 88.7467 72.561 88.2021 72.561C87.6986 72.561 87.2978 72.6689 86.9998 72.8847C86.7018 73.1005 86.5528 73.3831 86.5528 73.7324C86.5528 74.0099 86.6402 74.2411 86.8149 74.426C86.9998 74.6007 87.2259 74.7446 87.493 74.8576C87.7705 74.9604 88.1507 75.0785 88.6336 75.2121C89.2399 75.3765 89.7331 75.5409 90.1133 75.7054C90.4935 75.8595 90.8172 76.0958 91.0844 76.4144C91.3618 76.7329 91.5057 77.1491 91.516 77.6629C91.516 78.1253 91.3875 78.5414 91.1306 78.9114C90.8737 79.2813 90.509 79.5741 90.0363 79.7899C89.5739 79.9954 89.0395 80.0982 88.4333 80.0982ZM94.2204 70.1411C93.9533 70.1411 93.7272 70.0486 93.5422 69.8636C93.3573 69.6787 93.2648 69.4526 93.2648 69.1854C93.2648 68.9183 93.3573 68.6922 93.5422 68.5073C93.7272 68.3223 93.9533 68.2298 94.2204 68.2298C94.4773 68.2298 94.6931 68.3223 94.8678 68.5073C95.0528 68.6922 95.1452 68.9183 95.1452 69.1854C95.1452 69.4526 95.0528 69.6787 94.8678 69.8636C94.6931 70.0486 94.4773 70.1411 94.2204 70.1411ZM94.8986 71.5129V79.9595H93.496V71.5129H94.8986ZM96.7651 75.7054C96.7651 74.8422 96.9398 74.0869 97.2892 73.4396C97.6385 72.7819 98.1163 72.2733 98.7226 71.9136C99.3391 71.554 100.022 71.3742 100.773 71.3742C101.512 71.3742 102.155 71.5334 102.699 71.852C103.244 72.1705 103.65 72.5713 103.917 73.0542V71.5129H105.335V79.9595H103.917V78.3873C103.64 78.8805 103.223 79.2916 102.668 79.6204C102.124 79.9389 101.487 80.0982 100.757 80.0982C100.007 80.0982 99.3289 79.9132 98.7226 79.5433C98.1163 79.1734 97.6385 78.6545 97.2892 77.9865C96.9398 77.3186 96.7651 76.5582 96.7651 75.7054ZM103.917 75.7208C103.917 75.0837 103.789 74.5288 103.532 74.0561C103.275 73.5834 102.925 73.2238 102.484 72.9772C102.052 72.7203 101.574 72.5918 101.05 72.5918C100.526 72.5918 100.048 72.7151 99.6166 72.9618C99.185 73.2084 98.8408 73.568 98.5839 74.0407C98.327 74.5134 98.1986 75.0683 98.1986 75.7054C98.1986 76.3527 98.327 76.9179 98.5839 77.4008C98.8408 77.8735 99.185 78.2383 99.6166 78.4952C100.048 78.7418 100.526 78.8651 101.05 78.8651C101.574 78.8651 102.052 78.7418 102.484 78.4952C102.925 78.2383 103.275 77.8735 103.532 77.4008C103.789 76.9179 103.917 76.3579 103.917 75.7208ZM110.696 80.0982C110.048 80.0982 109.468 79.9903 108.954 79.7745C108.44 79.5484 108.034 79.2402 107.736 78.8497C107.438 78.449 107.274 77.9917 107.243 77.4779H108.692C108.733 77.8992 108.928 78.2434 109.277 78.5106C109.637 78.7778 110.105 78.9114 110.68 78.9114C111.214 78.9114 111.636 78.7932 111.944 78.5568C112.252 78.3205 112.406 78.0225 112.406 77.6629C112.406 77.2929 112.242 77.0206 111.913 76.8459C111.584 76.661 111.076 76.4812 110.387 76.3065C109.76 76.1421 109.247 75.9777 108.846 75.8132C108.455 75.6386 108.116 75.3868 107.829 75.058C107.551 74.7189 107.412 74.277 107.412 73.7324C107.412 73.3008 107.541 72.9052 107.798 72.5456C108.055 72.1859 108.419 71.9034 108.892 71.6978C109.365 71.4821 109.904 71.3742 110.511 71.3742C111.446 71.3742 112.201 71.6105 112.776 72.0832C113.352 72.5559 113.66 73.2032 113.701 74.0253H112.299C112.268 73.5834 112.088 73.2289 111.759 72.9618C111.441 72.6946 111.009 72.561 110.464 72.561C109.961 72.561 109.56 72.6689 109.262 72.8847C108.964 73.1005 108.815 73.3831 108.815 73.7324C108.815 74.0099 108.902 74.2411 109.077 74.426C109.262 74.6007 109.488 74.7446 109.755 74.8576C110.033 74.9604 110.413 75.0785 110.896 75.2121C111.502 75.3765 111.995 75.5409 112.376 75.7054C112.756 75.8595 113.079 76.0958 113.347 76.4144C113.624 76.7329 113.768 77.1491 113.778 77.6629C113.778 78.1253 113.65 78.5414 113.393 78.9114C113.136 79.2813 112.771 79.5741 112.299 79.7899C111.836 79.9954 111.302 80.0982 110.696 80.0982ZM125.916 71.3587C126.573 71.3587 127.159 71.4975 127.673 71.7749C128.187 72.0421 128.593 72.448 128.891 72.9926C129.189 73.5372 129.338 74.2 129.338 74.9809V79.9595H127.95V75.1813C127.95 74.3387 127.74 73.6965 127.318 73.2546C126.907 72.8025 126.347 72.5764 125.638 72.5764C124.909 72.5764 124.328 72.8128 123.897 73.2854C123.465 73.7478 123.249 74.4209 123.249 75.3046V79.9595H121.862V75.1813C121.862 74.3387 121.651 73.6965 121.23 73.2546C120.819 72.8025 120.259 72.5764 119.55 72.5764C118.82 72.5764 118.24 72.8128 117.808 73.2854C117.377 73.7478 117.161 74.4209 117.161 75.3046V79.9595H115.758V71.5129H117.161V72.7305C117.438 72.2887 117.808 71.9496 118.271 71.7133C118.743 71.4769 119.262 71.3587 119.827 71.3587C120.536 71.3587 121.163 71.518 121.708 71.8366C122.252 72.1551 122.658 72.6227 122.926 73.2392C123.162 72.6432 123.552 72.1808 124.097 71.852C124.642 71.5232 125.248 71.3587 125.916 71.3587Z" fill="#3E3E3E" fill-opacity="0.3"/>
<path d="M12.6196 151.697C12.6196 153.014 12.1655 154.111 11.2572 154.989C10.3641 155.852 8.99414 156.284 7.14734 156.284H4.10467V162.891H2.03838V147.065H7.14734C8.93359 147.065 10.2884 147.496 11.2118 148.359C12.1503 149.222 12.6196 150.334 12.6196 151.697ZM7.14734 154.581C8.29781 154.581 9.14552 154.331 9.69047 153.831C10.2354 153.332 10.5079 152.62 10.5079 151.697C10.5079 149.744 9.38772 148.768 7.14734 148.768H4.10467V154.581H7.14734ZM14.4157 156.624C14.4157 155.353 14.6731 154.24 15.1878 153.286C15.7024 152.317 16.4063 151.568 17.2995 151.038C18.2077 150.508 19.2144 150.244 20.3194 150.244C21.4093 150.244 22.3554 150.478 23.1577 150.947C23.96 151.417 24.558 152.007 24.9515 152.719V150.448H27.0405V162.891H24.9515V160.575C24.5428 161.302 23.9298 161.907 23.1123 162.392C22.31 162.861 21.3715 163.095 20.2967 163.095C19.1917 163.095 18.1926 162.823 17.2995 162.278C16.4063 161.733 15.7024 160.969 15.1878 159.985C14.6731 159.001 14.4157 157.881 14.4157 156.624ZM24.9515 156.647C24.9515 155.708 24.7623 154.891 24.3839 154.195C24.0054 153.498 23.4908 152.968 22.8398 152.605C22.2041 152.227 21.5002 152.037 20.7281 152.037C19.9561 152.037 19.2522 152.219 18.6164 152.582C17.9807 152.946 17.4735 153.475 17.0951 154.172C16.7167 154.868 16.5274 155.686 16.5274 156.624C16.5274 157.578 16.7167 158.41 17.0951 159.122C17.4735 159.818 17.9807 160.356 18.6164 160.734C19.2522 161.097 19.9561 161.279 20.7281 161.279C21.5002 161.279 22.2041 161.097 22.8398 160.734C23.4908 160.356 24.0054 159.818 24.3839 159.122C24.7623 158.41 24.9515 157.585 24.9515 156.647ZM33.0528 152.151V159.485C33.0528 160.091 33.1815 160.522 33.4388 160.779C33.6962 161.022 34.1427 161.143 34.7785 161.143H36.2998V162.891H34.4379C33.2874 162.891 32.4246 162.626 31.8494 162.096C31.2741 161.567 30.9865 160.696 30.9865 159.485V152.151H29.3744V150.448H30.9865V147.314H33.0528V150.448H36.2998V152.151H33.0528ZM39.8706 148.427C39.477 148.427 39.144 148.291 38.8715 148.018C38.599 147.746 38.4628 147.413 38.4628 147.019C38.4628 146.626 38.599 146.293 38.8715 146.02C39.144 145.748 39.477 145.611 39.8706 145.611C40.249 145.611 40.5669 145.748 40.8243 146.02C41.0968 146.293 41.233 146.626 41.233 147.019C41.233 147.413 41.0968 147.746 40.8243 148.018C40.5669 148.291 40.249 148.427 39.8706 148.427ZM40.8697 150.448V162.891H38.8034V150.448H40.8697ZM55.7446 156.193C55.7446 156.586 55.7219 157.003 55.6765 157.442H45.731C45.8067 158.668 46.223 159.629 46.9799 160.325C47.7519 161.006 48.6829 161.347 49.7728 161.347C50.6659 161.347 51.4076 161.143 51.998 160.734C52.6035 160.31 53.0274 159.75 53.2696 159.054H55.4948C55.1618 160.25 54.4957 161.226 53.4966 161.983C52.4976 162.725 51.2563 163.095 49.7728 163.095C48.592 163.095 47.5324 162.831 46.5939 162.301C45.6705 161.771 44.9439 161.022 44.414 160.053C43.8842 159.069 43.6193 157.934 43.6193 156.647C43.6193 155.36 43.8766 154.232 44.3913 153.264C44.906 152.295 45.6251 151.553 46.5484 151.038C47.487 150.508 48.5618 150.244 49.7728 150.244C50.9535 150.244 51.998 150.501 52.9063 151.016C53.8145 151.53 54.5109 152.242 54.9953 153.15C55.4948 154.043 55.7446 155.057 55.7446 156.193ZM53.6102 155.761C53.6102 154.974 53.4361 154.3 53.0879 153.74C52.7398 153.165 52.2629 152.734 51.6574 152.446C51.067 152.143 50.4086 151.992 49.6819 151.992C48.6374 151.992 47.7443 152.325 47.0026 152.991C46.276 153.657 45.8597 154.581 45.7537 155.761H53.6102ZM64.5347 150.221C66.0484 150.221 67.2746 150.683 68.2131 151.606C69.1517 152.514 69.6209 153.831 69.6209 155.557V162.891H67.5773V155.852C67.5773 154.611 67.267 153.665 66.6464 153.014C66.0257 152.348 65.178 152.015 64.1032 152.015C63.0133 152.015 62.1429 152.355 61.492 153.036C60.8562 153.718 60.5383 154.709 60.5383 156.011V162.891H58.472V150.448H60.5383V152.219C60.947 151.583 61.4996 151.091 62.1959 150.743C62.9074 150.395 63.687 150.221 64.5347 150.221ZM72.2242 156.647C72.2242 155.36 72.4815 154.24 72.9962 153.286C73.5109 152.317 74.2224 151.568 75.1306 151.038C76.054 150.508 77.1061 150.244 78.2868 150.244C79.8157 150.244 81.0722 150.614 82.0561 151.356C83.0552 152.098 83.7137 153.127 84.0316 154.444H81.8063C81.5944 153.687 81.1781 153.089 80.5575 152.65C79.952 152.211 79.1951 151.992 78.2868 151.992C77.1061 151.992 76.1524 152.401 75.4258 153.218C74.6992 154.02 74.3359 155.163 74.3359 156.647C74.3359 158.145 74.6992 159.303 75.4258 160.121C76.1524 160.938 77.1061 161.347 78.2868 161.347C79.1951 161.347 79.952 161.135 80.5575 160.711C81.163 160.287 81.5793 159.682 81.8063 158.895H84.0316C83.6985 160.166 83.0325 161.188 82.0334 161.96C81.0343 162.717 79.7854 163.095 78.2868 163.095C77.1061 163.095 76.054 162.831 75.1306 162.301C74.2224 161.771 73.5109 161.022 72.9962 160.053C72.4815 159.084 72.2242 157.949 72.2242 156.647ZM98.1419 156.193C98.1419 156.586 98.1192 157.003 98.0738 157.442H88.1283C88.204 158.668 88.6203 159.629 89.3772 160.325C90.1492 161.006 91.0802 161.347 92.1701 161.347C93.0632 161.347 93.8049 161.143 94.3953 160.734C95.0008 160.31 95.4247 159.75 95.6669 159.054H97.8921C97.5591 160.25 96.893 161.226 95.8939 161.983C94.8949 162.725 93.6536 163.095 92.1701 163.095C90.9893 163.095 89.9297 162.831 88.9912 162.301C88.0678 161.771 87.3412 161.022 86.8113 160.053C86.2815 159.069 86.0166 157.934 86.0166 156.647C86.0166 155.36 86.274 154.232 86.7886 153.264C87.3033 152.295 88.0224 151.553 88.9458 151.038C89.8843 150.508 90.9591 150.244 92.1701 150.244C93.3508 150.244 94.3953 150.501 95.3036 151.016C96.2118 151.53 96.9082 152.242 97.3926 153.15C97.8921 154.043 98.1419 155.057 98.1419 156.193ZM96.0075 155.761C96.0075 154.974 95.8334 154.3 95.4852 153.74C95.1371 153.165 94.6602 152.734 94.0547 152.446C93.4644 152.143 92.8059 151.992 92.0793 151.992C91.0348 151.992 90.1416 152.325 89.3999 152.991C88.6733 153.657 88.257 154.581 88.151 155.761H96.0075Z" fill="black" fill-opacity="0.8"/>
<path d="M276.596 83.7139C276.596 84.6079 276.288 85.3529 275.671 85.9489C275.065 86.5346 274.135 86.8274 272.882 86.8274H270.816V91.3127H269.414V80.5695H272.882C274.094 80.5695 275.014 80.8624 275.641 81.4481C276.278 82.0338 276.596 82.7891 276.596 83.7139ZM272.882 85.6714C273.663 85.6714 274.238 85.5019 274.608 85.1628C274.978 84.8237 275.163 84.3407 275.163 83.7139C275.163 82.3883 274.402 81.7256 272.882 81.7256H270.816V85.6714H272.882ZM286.046 86.7658C286.046 87.0329 286.031 87.3155 286 87.6135H279.249C279.3 88.4458 279.583 89.0983 280.097 89.571C280.621 90.0334 281.253 90.2646 281.993 90.2646C282.599 90.2646 283.102 90.1259 283.503 89.8485C283.914 89.5607 284.202 89.1805 284.366 88.7079H285.877C285.651 89.5196 285.199 90.1824 284.52 90.6962C283.842 91.1997 283 91.4515 281.993 91.4515C281.191 91.4515 280.472 91.2716 279.835 90.912C279.208 90.5523 278.715 90.0437 278.355 89.3861C277.995 88.7181 277.815 87.9475 277.815 87.074C277.815 86.2006 277.99 85.4351 278.34 84.7774C278.689 84.1198 279.177 83.6163 279.804 83.2669C280.441 82.9073 281.17 82.7274 281.993 82.7274C282.794 82.7274 283.503 82.9021 284.12 83.2515C284.736 83.6009 285.209 84.0838 285.538 84.7004C285.877 85.3066 286.046 85.9951 286.046 86.7658ZM284.597 86.4729C284.597 85.9386 284.479 85.4813 284.243 85.1011C284.007 84.7106 283.683 84.4178 283.272 84.2225C282.871 84.017 282.424 83.9143 281.931 83.9143C281.222 83.9143 280.616 84.1403 280.112 84.5925C279.619 85.0446 279.336 85.6714 279.264 86.4729H284.597ZM289.3 84.238C289.547 83.755 289.896 83.3799 290.348 83.1128C290.811 82.8456 291.371 82.712 292.029 82.712V84.1609H291.659C290.086 84.1609 289.3 85.0138 289.3 86.7195V91.3127H287.898V82.8662H289.3V84.238ZM296.638 91.4515C295.99 91.4515 295.41 91.3436 294.896 91.1278C294.382 90.9017 293.976 90.5934 293.678 90.203C293.38 89.8022 293.216 89.345 293.185 88.8312H294.634C294.675 89.2525 294.87 89.5967 295.22 89.8639C295.579 90.131 296.047 90.2646 296.622 90.2646C297.157 90.2646 297.578 90.1465 297.886 89.9101C298.195 89.6738 298.349 89.3758 298.349 89.0161C298.349 88.6462 298.184 88.3739 297.856 88.1992C297.527 88.0143 297.018 87.8344 296.33 87.6597C295.703 87.4953 295.189 87.3309 294.788 87.1665C294.398 86.9918 294.059 86.7401 293.771 86.4113C293.494 86.0722 293.355 85.6303 293.355 85.0857C293.355 84.6541 293.483 84.2585 293.74 83.8989C293.997 83.5392 294.362 83.2566 294.834 83.0511C295.307 82.8353 295.847 82.7274 296.453 82.7274C297.388 82.7274 298.143 82.9638 298.719 83.4365C299.294 83.9091 299.602 84.5565 299.643 85.3786H298.241C298.21 84.9367 298.03 84.5822 297.701 84.315C297.383 84.0479 296.951 83.9143 296.407 83.9143C295.903 83.9143 295.502 84.0222 295.204 84.238C294.906 84.4537 294.757 84.7363 294.757 85.0857C294.757 85.3631 294.845 85.5943 295.019 85.7793C295.204 85.954 295.43 86.0978 295.698 86.2109C295.975 86.3136 296.355 86.4318 296.838 86.5654C297.444 86.7298 297.938 86.8942 298.318 87.0586C298.698 87.2128 299.022 87.4491 299.289 87.7676C299.566 88.0862 299.71 88.5024 299.721 89.0161C299.721 89.4785 299.592 89.8947 299.335 90.2646C299.078 90.6346 298.714 90.9274 298.241 91.1432C297.778 91.3487 297.244 91.4515 296.638 91.4515ZM309.407 86.7658C309.407 87.0329 309.392 87.3155 309.361 87.6135H302.61C302.661 88.4458 302.944 89.0983 303.458 89.571C303.982 90.0334 304.614 90.2646 305.354 90.2646C305.96 90.2646 306.463 90.1259 306.864 89.8485C307.275 89.5607 307.563 89.1805 307.727 88.7079H309.238C309.012 89.5196 308.56 90.1824 307.881 90.6962C307.203 91.1997 306.361 91.4515 305.354 91.4515C304.552 91.4515 303.833 91.2716 303.196 90.912C302.569 90.5523 302.076 90.0437 301.716 89.3861C301.356 88.7181 301.177 87.9475 301.177 87.074C301.177 86.2006 301.351 85.4351 301.701 84.7774C302.05 84.1198 302.538 83.6163 303.165 83.2669C303.802 82.9073 304.532 82.7274 305.354 82.7274C306.155 82.7274 306.864 82.9021 307.481 83.2515C308.097 83.6009 308.57 84.0838 308.899 84.7004C309.238 85.3066 309.407 85.9951 309.407 86.7658ZM307.958 86.4729C307.958 85.9386 307.84 85.4813 307.604 85.1011C307.368 84.7106 307.044 84.4178 306.633 84.2225C306.232 84.017 305.785 83.9143 305.292 83.9143C304.583 83.9143 303.977 84.1403 303.473 84.5925C302.98 85.0446 302.697 85.6714 302.625 86.4729H307.958ZM314.403 90.018L317.023 82.8662H318.518L315.205 91.3127H313.571L310.257 82.8662H311.767L314.403 90.018ZM327.605 86.7658C327.605 87.0329 327.59 87.3155 327.559 87.6135H320.808C320.86 88.4458 321.142 89.0983 321.656 89.571C322.18 90.0334 322.812 90.2646 323.552 90.2646C324.158 90.2646 324.661 90.1259 325.062 89.8485C325.473 89.5607 325.761 89.1805 325.925 88.7079H327.436C327.21 89.5196 326.758 90.1824 326.08 90.6962C325.401 91.1997 324.559 91.4515 323.552 91.4515C322.75 91.4515 322.031 91.2716 321.394 90.912C320.767 90.5523 320.274 90.0437 319.914 89.3861C319.554 88.7181 319.375 87.9475 319.375 87.074C319.375 86.2006 319.549 85.4351 319.899 84.7774C320.248 84.1198 320.736 83.6163 321.363 83.2669C322 82.9073 322.73 82.7274 323.552 82.7274C324.353 82.7274 325.062 82.9021 325.679 83.2515C326.295 83.6009 326.768 84.0838 327.097 84.7004C327.436 85.3066 327.605 85.9951 327.605 86.7658ZM326.157 86.4729C326.157 85.9386 326.038 85.4813 325.802 85.1011C325.566 84.7106 325.242 84.4178 324.831 84.2225C324.43 84.017 323.983 83.9143 323.49 83.9143C322.781 83.9143 322.175 84.1403 321.671 84.5925C321.178 85.0446 320.895 85.6714 320.824 86.4729H326.157ZM330.86 84.238C331.106 83.755 331.456 83.3799 331.908 83.1128C332.37 82.8456 332.93 82.712 333.588 82.712V84.1609H333.218C331.646 84.1609 330.86 85.0138 330.86 86.7195V91.3127H329.457V82.8662H330.86V84.238ZM334.683 87.0586C334.683 86.1955 334.857 85.4402 335.207 84.7928C335.556 84.1352 336.034 83.6266 336.64 83.2669C337.257 82.9073 337.94 82.7274 338.69 82.7274C339.43 82.7274 340.072 82.8867 340.617 83.2053C341.162 83.5238 341.567 83.9245 341.835 84.4075V82.8662H343.253V91.3127H341.835V89.7406C341.557 90.2338 341.141 90.6448 340.586 90.9736C340.042 91.2922 339.404 91.4515 338.675 91.4515C337.925 91.4515 337.247 91.2665 336.64 90.8966C336.034 90.5267 335.556 90.0077 335.207 89.3398C334.857 88.6719 334.683 87.9115 334.683 87.0586ZM341.835 87.074C341.835 86.4369 341.706 85.8821 341.449 85.4094C341.192 84.9367 340.843 84.5771 340.401 84.3304C339.97 84.0735 339.492 83.9451 338.968 83.9451C338.444 83.9451 337.966 84.0684 337.534 84.315C337.103 84.5616 336.758 84.9213 336.502 85.394C336.245 85.8666 336.116 86.4215 336.116 87.0586C336.116 87.706 336.245 88.2712 336.502 88.7541C336.758 89.2268 337.103 89.5916 337.534 89.8485C337.966 90.0951 338.444 90.2184 338.968 90.2184C339.492 90.2184 339.97 90.0951 340.401 89.8485C340.843 89.5916 341.192 89.2268 341.449 88.7541C341.706 88.2712 341.835 87.7111 341.835 87.074ZM349.738 82.712C350.766 82.712 351.598 83.0254 352.235 83.6522C352.872 84.2688 353.191 85.1628 353.191 86.3342V91.3127H351.804V86.5346C351.804 85.692 351.593 85.0497 351.172 84.6079C350.751 84.1557 350.175 83.9297 349.446 83.9297C348.706 83.9297 348.115 84.1609 347.673 84.6233C347.241 85.0857 347.026 85.7588 347.026 86.6425V91.3127H345.623V82.8662H347.026V84.0684C347.303 83.6368 347.678 83.3029 348.151 83.0665C348.634 82.8302 349.163 82.712 349.738 82.712ZM354.958 87.074C354.958 86.2006 355.133 85.4402 355.482 84.7928C355.832 84.1352 356.315 83.6266 356.931 83.2669C357.558 82.9073 358.272 82.7274 359.074 82.7274C360.111 82.7274 360.964 82.9792 361.632 83.4827C362.31 83.9862 362.757 84.6849 362.973 85.5789H361.463C361.319 85.0651 361.036 84.6593 360.615 84.3613C360.204 84.0633 359.69 83.9143 359.074 83.9143C358.272 83.9143 357.625 84.1917 357.131 84.7466C356.638 85.2912 356.392 86.067 356.392 87.074C356.392 88.0913 356.638 88.8774 357.131 89.4323C357.625 89.9872 358.272 90.2646 359.074 90.2646C359.69 90.2646 360.204 90.1208 360.615 89.833C361.026 89.5453 361.308 89.1343 361.463 88.6H362.973C362.747 89.4631 362.295 90.1567 361.617 90.6808C360.939 91.1946 360.091 91.4515 359.074 91.4515C358.272 91.4515 357.558 91.2716 356.931 90.912C356.315 90.5523 355.832 90.0437 355.482 89.3861C355.133 88.7284 354.958 87.9577 354.958 87.074ZM372.551 86.7658C372.551 87.0329 372.536 87.3155 372.505 87.6135H365.754C365.805 88.4458 366.088 89.0983 366.602 89.571C367.126 90.0334 367.758 90.2646 368.498 90.2646C369.104 90.2646 369.607 90.1259 370.008 89.8485C370.419 89.5607 370.707 89.1805 370.871 88.7079H372.382C372.156 89.5196 371.704 90.1824 371.025 90.6962C370.347 91.1997 369.505 91.4515 368.498 91.4515C367.696 91.4515 366.977 91.2716 366.34 90.912C365.713 90.5523 365.22 90.0437 364.86 89.3861C364.5 88.7181 364.321 87.9475 364.321 87.074C364.321 86.2006 364.495 85.4351 364.845 84.7774C365.194 84.1198 365.682 83.6163 366.309 83.2669C366.946 82.9073 367.676 82.7274 368.498 82.7274C369.299 82.7274 370.008 82.9021 370.625 83.2515C371.241 83.6009 371.714 84.0838 372.043 84.7004C372.382 85.3066 372.551 85.9951 372.551 86.7658ZM371.103 86.4729C371.103 85.9386 370.984 85.4813 370.748 85.1011C370.512 84.7106 370.188 84.4178 369.777 84.2225C369.376 84.017 368.929 83.9143 368.436 83.9143C367.727 83.9143 367.121 84.1403 366.617 84.5925C366.124 85.0446 365.841 85.6714 365.769 86.4729H371.103Z" fill="#3E3E3E" fill-opacity="0.3"/>
<path d="M147.914 17.5166L145.355 13.1238H143.66V17.5166H142.257V6.7734H145.725C146.537 6.7734 147.22 6.91213 147.775 7.18957C148.34 7.46701 148.762 7.84207 149.039 8.31475C149.317 8.78743 149.455 9.3269 149.455 9.93317C149.455 10.673 149.239 11.3255 148.808 11.8907C148.387 12.4558 147.749 12.8309 146.897 13.0159L149.594 17.5166H147.914ZM143.66 11.9986H145.725C146.486 11.9986 147.056 11.8136 147.436 11.4437C147.816 11.0635 148.006 10.56 148.006 9.93317C148.006 9.29608 147.816 8.80285 147.436 8.45347C147.066 8.1041 146.496 7.92941 145.725 7.92941H143.66V11.9986ZM159.341 12.9696C159.341 13.2368 159.326 13.5194 159.295 13.8174H152.544C152.595 14.6497 152.878 15.3022 153.392 15.7749C153.916 16.2373 154.548 16.4685 155.288 16.4685C155.894 16.4685 156.397 16.3298 156.798 16.0523C157.209 15.7646 157.497 15.3844 157.661 14.9117H159.172C158.946 15.7235 158.494 16.3863 157.815 16.9001C157.137 17.4036 156.295 17.6553 155.288 17.6553C154.486 17.6553 153.767 17.4755 153.13 17.1159C152.503 16.7562 152.01 16.2476 151.65 15.5899C151.29 14.922 151.111 14.1513 151.111 13.2779C151.111 12.4045 151.285 11.6389 151.635 10.9813C151.984 10.3236 152.472 9.82014 153.099 9.47076C153.736 9.11112 154.466 8.93129 155.288 8.93129C156.089 8.93129 156.798 9.10598 157.415 9.45535C158.031 9.80472 158.504 10.2877 158.833 10.9042C159.172 11.5105 159.341 12.1989 159.341 12.9696ZM157.893 12.6768C157.893 12.1424 157.774 11.6852 157.538 11.305C157.302 10.9145 156.978 10.6216 156.567 10.4264C156.166 10.2209 155.719 10.1181 155.226 10.1181C154.517 10.1181 153.911 10.3442 153.407 10.7963C152.914 11.2485 152.631 11.8753 152.559 12.6768H157.893ZM164.183 17.6553C163.536 17.6553 162.955 17.5474 162.441 17.3316C161.928 17.1056 161.522 16.7973 161.224 16.4068C160.926 16.0061 160.761 15.5488 160.73 15.035H162.179C162.22 15.4563 162.416 15.8006 162.765 16.0677C163.125 16.3349 163.592 16.4685 164.168 16.4685C164.702 16.4685 165.123 16.3503 165.432 16.114C165.74 15.8776 165.894 15.5796 165.894 15.22C165.894 14.8501 165.73 14.5778 165.401 14.4031C165.072 14.2181 164.563 14.0383 163.875 13.8636C163.248 13.6992 162.734 13.5348 162.333 13.3704C161.943 13.1957 161.604 12.9439 161.316 12.6151C161.039 12.276 160.9 11.8342 160.9 11.2896C160.9 10.858 161.028 10.4624 161.285 10.1027C161.542 9.74307 161.907 9.46049 162.38 9.25497C162.852 9.03919 163.392 8.93129 163.998 8.93129C164.933 8.93129 165.688 9.16763 166.264 9.64031C166.839 10.113 167.148 10.7604 167.189 11.5824H165.786C165.755 11.1406 165.575 10.786 165.247 10.5189C164.928 10.2517 164.496 10.1181 163.952 10.1181C163.448 10.1181 163.048 10.226 162.75 10.4418C162.452 10.6576 162.303 10.9402 162.303 11.2896C162.303 11.567 162.39 11.7982 162.565 11.9832C162.75 12.1578 162.976 12.3017 163.243 12.4147C163.52 12.5175 163.9 12.6357 164.383 12.7692C164.99 12.9337 165.483 13.0981 165.863 13.2625C166.243 13.4166 166.567 13.653 166.834 13.9715C167.112 14.29 167.255 14.7062 167.266 15.22C167.266 15.6824 167.137 16.0986 166.88 16.4685C166.624 16.8384 166.259 17.1313 165.786 17.3471C165.324 17.5526 164.789 17.6553 164.183 17.6553ZM172.93 17.6553C172.138 17.6553 171.419 17.4755 170.772 17.1159C170.135 16.7562 169.631 16.2476 169.261 15.5899C168.902 14.922 168.722 14.1513 168.722 13.2779C168.722 12.4147 168.907 11.6543 169.277 10.9967C169.657 10.3288 170.171 9.82014 170.818 9.47076C171.465 9.11112 172.19 8.93129 172.991 8.93129C173.793 8.93129 174.517 9.11112 175.165 9.47076C175.812 9.82014 176.321 10.3236 176.691 10.9813C177.071 11.6389 177.261 12.4045 177.261 13.2779C177.261 14.1513 177.066 14.922 176.675 15.5899C176.295 16.2476 175.776 16.7562 175.118 17.1159C174.461 17.4755 173.731 17.6553 172.93 17.6553ZM172.93 16.4222C173.433 16.4222 173.906 16.3041 174.348 16.0677C174.79 15.8314 175.144 15.4769 175.411 15.0042C175.689 14.5315 175.827 13.9561 175.827 13.2779C175.827 12.5997 175.694 12.0243 175.427 11.5516C175.159 11.0789 174.81 10.7295 174.378 10.5035C173.947 10.2671 173.479 10.149 172.976 10.149C172.462 10.149 171.989 10.2671 171.558 10.5035C171.137 10.7295 170.797 11.0789 170.541 11.5516C170.284 12.0243 170.155 12.5997 170.155 13.2779C170.155 13.9664 170.279 14.5469 170.525 15.0196C170.782 15.4923 171.121 15.8468 171.542 16.0831C171.964 16.3092 172.426 16.4222 172.93 16.4222ZM186.596 9.07001V17.5166H185.193V16.2681C184.926 16.6997 184.551 17.0388 184.068 17.2854C183.595 17.5217 183.071 17.6399 182.496 17.6399C181.838 17.6399 181.247 17.5063 180.723 17.2392C180.199 16.9617 179.783 16.5507 179.475 16.0061C179.177 15.4615 179.028 14.7987 179.028 14.0177V9.07001H180.415V13.8328C180.415 14.6651 180.626 15.3073 181.047 15.7595C181.468 16.2013 182.044 16.4222 182.773 16.4222C183.524 16.4222 184.114 16.191 184.546 15.7286C184.978 15.2662 185.193 14.5932 185.193 13.7095V9.07001H186.596ZM190.367 10.4418C190.613 9.95886 190.963 9.5838 191.415 9.31663C191.877 9.04946 192.437 8.91588 193.095 8.91588V10.3647H192.725C191.153 10.3647 190.367 11.2176 190.367 12.9234V17.5166H188.964V9.07001H190.367V10.4418ZM194.19 13.2779C194.19 12.4045 194.365 11.6441 194.714 10.9967C195.064 10.3391 195.546 9.83041 196.163 9.47076C196.79 9.11112 197.504 8.93129 198.306 8.93129C199.343 8.93129 200.196 9.18304 200.864 9.68655C201.542 10.1901 201.989 10.8888 202.205 11.7828H200.695C200.551 11.269 200.268 10.8631 199.847 10.5651C199.436 10.2671 198.922 10.1181 198.306 10.1181C197.504 10.1181 196.857 10.3956 196.363 10.9505C195.87 11.4951 195.624 12.2709 195.624 13.2779C195.624 14.2952 195.87 15.0813 196.363 15.6362C196.857 16.191 197.504 16.4685 198.306 16.4685C198.922 16.4685 199.436 16.3246 199.847 16.0369C200.258 15.7492 200.54 15.3382 200.695 14.8038H202.205C201.979 15.667 201.527 16.3606 200.849 16.8846C200.171 17.3984 199.323 17.6553 198.306 17.6553C197.504 17.6553 196.79 17.4755 196.163 17.1159C195.546 16.7562 195.064 16.2476 194.714 15.5899C194.365 14.9323 194.19 14.1616 194.19 13.2779ZM211.783 12.9696C211.783 13.2368 211.768 13.5194 211.737 13.8174H204.986C205.037 14.6497 205.32 15.3022 205.834 15.7749C206.358 16.2373 206.99 16.4685 207.73 16.4685C208.336 16.4685 208.839 16.3298 209.24 16.0523C209.651 15.7646 209.939 15.3844 210.103 14.9117H211.614C211.388 15.7235 210.936 16.3863 210.257 16.9001C209.579 17.4036 208.737 17.6553 207.73 17.6553C206.928 17.6553 206.209 17.4755 205.572 17.1159C204.945 16.7562 204.452 16.2476 204.092 15.5899C203.732 14.922 203.553 14.1513 203.553 13.2779C203.553 12.4045 203.727 11.6389 204.077 10.9813C204.426 10.3236 204.914 9.82014 205.541 9.47076C206.178 9.11112 206.908 8.93129 207.73 8.93129C208.531 8.93129 209.24 9.10598 209.857 9.45535C210.473 9.80472 210.946 10.2877 211.275 10.9042C211.614 11.5105 211.783 12.1989 211.783 12.9696ZM210.335 12.6768C210.335 12.1424 210.216 11.6852 209.98 11.305C209.744 10.9145 209.42 10.6216 209.009 10.4264C208.608 10.2209 208.161 10.1181 207.668 10.1181C206.959 10.1181 206.353 10.3442 205.849 10.7963C205.356 11.2485 205.073 11.8753 205.001 12.6768H210.335ZM217.072 10.226H215.299V17.5166H213.897V10.226H212.802V9.07001H213.897V8.46889C213.897 7.52353 214.138 6.83506 214.621 6.40348C215.115 5.96163 215.901 5.7407 216.98 5.7407V6.91213C216.363 6.91213 215.926 7.03543 215.669 7.28205C215.423 7.51839 215.299 7.914 215.299 8.46889V9.07001H217.072V10.226ZM226.198 9.07001V17.5166H224.796V16.2681C224.529 16.6997 224.154 17.0388 223.671 17.2854C223.198 17.5217 222.674 17.6399 222.098 17.6399C221.441 17.6399 220.85 17.5063 220.326 17.2392C219.802 16.9617 219.386 16.5507 219.077 16.0061C218.779 15.4615 218.63 14.7987 218.63 14.0177V9.07001H220.018V13.8328C220.018 14.6651 220.228 15.3073 220.65 15.7595C221.071 16.2013 221.646 16.4222 222.376 16.4222C223.126 16.4222 223.717 16.191 224.148 15.7286C224.58 15.2662 224.796 14.5932 224.796 13.7095V9.07001H226.198ZM229.969 6.11062V17.5166H228.567V6.11062H229.969ZM236.475 8.91588C237.503 8.91588 238.335 9.22929 238.972 9.8561C239.609 10.4726 239.928 11.3666 239.928 12.538V17.5166H238.541V12.7384C238.541 11.8958 238.33 11.2536 237.909 10.8117C237.487 10.3596 236.912 10.1335 236.182 10.1335C235.442 10.1335 234.852 10.3647 234.41 10.8271C233.978 11.2896 233.762 11.9626 233.762 12.8463V17.5166H232.36V9.07001H233.762V10.2723C234.04 9.84069 234.415 9.50673 234.888 9.27039C235.371 9.03405 235.9 8.91588 236.475 8.91588ZM249.926 12.9696C249.926 13.2368 249.91 13.5194 249.88 13.8174H243.128C243.18 14.6497 243.462 15.3022 243.976 15.7749C244.5 16.2373 245.132 16.4685 245.872 16.4685C246.478 16.4685 246.982 16.3298 247.383 16.0523C247.794 15.7646 248.081 15.3844 248.246 14.9117H249.756C249.53 15.7235 249.078 16.3863 248.4 16.9001C247.722 17.4036 246.879 17.6553 245.872 17.6553C245.07 17.6553 244.351 17.4755 243.714 17.1159C243.087 16.7562 242.594 16.2476 242.234 15.5899C241.875 14.922 241.695 14.1513 241.695 13.2779C241.695 12.4045 241.87 11.6389 242.219 10.9813C242.568 10.3236 243.056 9.82014 243.683 9.47076C244.32 9.11112 245.05 8.93129 245.872 8.93129C246.674 8.93129 247.383 9.10598 247.999 9.45535C248.616 9.80472 249.088 10.2877 249.417 10.9042C249.756 11.5105 249.926 12.1989 249.926 12.9696ZM248.477 12.6768C248.477 12.1424 248.359 11.6852 248.122 11.305C247.886 10.9145 247.562 10.6216 247.151 10.4264C246.751 10.2209 246.304 10.1181 245.81 10.1181C245.101 10.1181 244.495 10.3442 243.992 10.7963C243.498 11.2485 243.216 11.8753 243.144 12.6768H248.477ZM254.767 17.6553C254.12 17.6553 253.539 17.5474 253.026 17.3316C252.512 17.1056 252.106 16.7973 251.808 16.4068C251.51 16.0061 251.346 15.5488 251.315 15.035H252.764C252.805 15.4563 253 15.8006 253.349 16.0677C253.709 16.3349 254.177 16.4685 254.752 16.4685C255.286 16.4685 255.708 16.3503 256.016 16.114C256.324 15.8776 256.478 15.5796 256.478 15.22C256.478 14.8501 256.314 14.5778 255.985 14.4031C255.656 14.2181 255.148 14.0383 254.459 13.8636C253.832 13.6992 253.319 13.5348 252.918 13.3704C252.527 13.1957 252.188 12.9439 251.9 12.6151C251.623 12.276 251.484 11.8342 251.484 11.2896C251.484 10.858 251.613 10.4624 251.87 10.1027C252.127 9.74307 252.491 9.46049 252.964 9.25497C253.437 9.03919 253.976 8.93129 254.582 8.93129C255.518 8.93129 256.273 9.16763 256.848 9.64031C257.424 10.113 257.732 10.7604 257.773 11.5824H256.37C256.34 11.1406 256.16 10.786 255.831 10.5189C255.512 10.2517 255.081 10.1181 254.536 10.1181C254.033 10.1181 253.632 10.226 253.334 10.4418C253.036 10.6576 252.887 10.9402 252.887 11.2896C252.887 11.567 252.974 11.7982 253.149 11.9832C253.334 12.1578 253.56 12.3017 253.827 12.4147C254.105 12.5175 254.485 12.6357 254.968 12.7692C255.574 12.9337 256.067 13.0981 256.447 13.2625C256.828 13.4166 257.151 13.653 257.419 13.9715C257.696 14.29 257.84 14.7062 257.85 15.22C257.85 15.6824 257.722 16.0986 257.465 16.4685C257.208 16.8384 256.843 17.1313 256.37 17.3471C255.908 17.5526 255.374 17.6553 254.767 17.6553ZM262.82 17.6553C262.173 17.6553 261.592 17.5474 261.079 17.3316C260.565 17.1056 260.159 16.7973 259.861 16.4068C259.563 16.0061 259.399 15.5488 259.368 15.035H260.817C260.858 15.4563 261.053 15.8006 261.402 16.0677C261.762 16.3349 262.229 16.4685 262.805 16.4685C263.339 16.4685 263.761 16.3503 264.069 16.114C264.377 15.8776 264.531 15.5796 264.531 15.22C264.531 14.8501 264.367 14.5778 264.038 14.4031C263.709 14.2181 263.201 14.0383 262.512 13.8636C261.885 13.6992 261.371 13.5348 260.971 13.3704C260.58 13.1957 260.241 12.9439 259.953 12.6151C259.676 12.276 259.537 11.8342 259.537 11.2896C259.537 10.858 259.666 10.4624 259.923 10.1027C260.179 9.74307 260.544 9.46049 261.017 9.25497C261.49 9.03919 262.029 8.93129 262.635 8.93129C263.57 8.93129 264.326 9.16763 264.901 9.64031C265.477 10.113 265.785 10.7604 265.826 11.5824H264.423C264.393 11.1406 264.213 10.786 263.884 10.5189C263.565 10.2517 263.134 10.1181 262.589 10.1181C262.086 10.1181 261.685 10.226 261.387 10.4418C261.089 10.6576 260.94 10.9402 260.94 11.2896C260.94 11.567 261.027 11.7982 261.202 11.9832C261.387 12.1578 261.613 12.3017 261.88 12.4147C262.158 12.5175 262.538 12.6357 263.021 12.7692C263.627 12.9337 264.12 13.0981 264.5 13.2625C264.881 13.4166 265.204 13.653 265.471 13.9715C265.749 14.29 265.893 14.7062 265.903 15.22C265.903 15.6824 265.775 16.0986 265.518 16.4685C265.261 16.8384 264.896 17.1313 264.423 17.3471C263.961 17.5526 263.427 17.6553 262.82 17.6553Z" fill="#3E3E3E" fill-opacity="0.3"/>
<path d="M78.9462 227.032V230.623H82.8612V231.779H78.9462V235.479H83.3236V236.635H77.5436V225.876H83.3236V227.032H78.9462ZM92.7212 228.188L87.6347 240.611H86.1859L87.8505 236.542L84.4441 228.188H86.0009L88.652 235.032L91.2723 228.188H92.7212ZM101.838 232.088C101.838 232.355 101.822 232.637 101.792 232.935H95.0405C95.0919 233.768 95.3745 234.42 95.8883 234.893C96.4123 235.355 97.0443 235.586 97.7841 235.586C98.3904 235.586 98.8939 235.448 99.2947 235.17C99.7057 234.883 99.9934 234.502 100.158 234.03H101.668C101.442 234.841 100.99 235.504 100.312 236.018C99.6338 236.521 98.7912 236.773 97.7841 236.773C96.9826 236.773 96.2633 236.593 95.6263 236.234C94.9994 235.874 94.5062 235.365 94.1466 234.708C93.7869 234.04 93.6071 233.269 93.6071 232.396C93.6071 231.522 93.7818 230.757 94.1311 230.099C94.4805 229.442 94.9686 228.938 95.5954 228.589C96.2325 228.229 96.9621 228.049 97.7841 228.049C98.5856 228.049 99.2947 228.224 99.9112 228.573C100.528 228.923 101 229.406 101.329 230.022C101.668 230.628 101.838 231.317 101.838 232.088ZM100.389 231.795C100.389 231.26 100.271 230.803 100.035 230.423C99.7982 230.032 99.4745 229.74 99.0635 229.544C98.6627 229.339 98.2157 229.236 97.7225 229.236C97.0135 229.236 96.4072 229.462 95.9037 229.914C95.4105 230.366 95.1279 230.993 95.056 231.795H100.389ZM111.236 229.344H109.463V236.635H108.061V229.344H106.966V228.188H108.061V227.587C108.061 226.641 108.302 225.953 108.785 225.521C109.278 225.08 110.064 224.859 111.143 224.859V226.03C110.527 226.03 110.09 226.153 109.833 226.4C109.587 226.636 109.463 227.032 109.463 227.587V228.188H111.236V229.344ZM116.555 236.773C115.764 236.773 115.044 236.593 114.397 236.234C113.76 235.874 113.257 235.365 112.887 234.708C112.527 234.04 112.347 233.269 112.347 232.396C112.347 231.533 112.532 230.772 112.902 230.115C113.282 229.447 113.796 228.938 114.443 228.589C115.091 228.229 115.815 228.049 116.617 228.049C117.418 228.049 118.143 228.229 118.79 228.589C119.437 228.938 119.946 229.442 120.316 230.099C120.696 230.757 120.886 231.522 120.886 232.396C120.886 233.269 120.691 234.04 120.3 234.708C119.92 235.365 119.401 235.874 118.744 236.234C118.086 236.593 117.356 236.773 116.555 236.773ZM116.555 235.54C117.059 235.54 117.531 235.422 117.973 235.186C118.415 234.949 118.769 234.595 119.037 234.122C119.314 233.649 119.453 233.074 119.453 232.396C119.453 231.718 119.319 231.142 119.052 230.67C118.785 230.197 118.435 229.847 118.004 229.621C117.572 229.385 117.105 229.267 116.601 229.267C116.087 229.267 115.615 229.385 115.183 229.621C114.762 229.847 114.423 230.197 114.166 230.67C113.909 231.142 113.781 231.718 113.781 232.396C113.781 233.084 113.904 233.665 114.15 234.138C114.407 234.61 114.746 234.965 115.168 235.201C115.589 235.427 116.051 235.54 116.555 235.54ZM124.133 229.56C124.38 229.077 124.729 228.702 125.181 228.435C125.644 228.167 126.204 228.034 126.861 228.034V229.483H126.491C124.919 229.483 124.133 230.336 124.133 232.041V236.635H122.73V228.188H124.133V229.56ZM135.934 225.891C137.106 225.891 138.118 226.112 138.971 226.554C139.834 226.986 140.492 227.607 140.944 228.419C141.406 229.231 141.637 230.187 141.637 231.286C141.637 232.386 141.406 233.341 140.944 234.153C140.492 234.954 139.834 235.571 138.971 236.003C138.118 236.424 137.106 236.635 135.934 236.635H132.59V225.891H135.934ZM135.934 235.479C137.322 235.479 138.38 235.114 139.109 234.384C139.839 233.644 140.204 232.612 140.204 231.286C140.204 229.95 139.834 228.907 139.094 228.157C138.365 227.407 137.311 227.032 135.934 227.032H133.992V235.479H135.934ZM151.194 232.088C151.194 232.355 151.179 232.637 151.148 232.935H144.397C144.448 233.768 144.731 234.42 145.245 234.893C145.769 235.355 146.401 235.586 147.14 235.586C147.747 235.586 148.25 235.448 148.651 235.17C149.062 234.883 149.35 234.502 149.514 234.03H151.025C150.799 234.841 150.346 235.504 149.668 236.018C148.99 236.521 148.147 236.773 147.14 236.773C146.339 236.773 145.62 236.593 144.983 236.234C144.356 235.874 143.862 235.365 143.503 234.708C143.143 234.04 142.963 233.269 142.963 232.396C142.963 231.522 143.138 230.757 143.487 230.099C143.837 229.442 144.325 228.938 144.952 228.589C145.589 228.229 146.318 228.049 147.14 228.049C147.942 228.049 148.651 228.224 149.267 228.573C149.884 228.923 150.357 229.406 150.686 230.022C151.025 230.628 151.194 231.317 151.194 232.088ZM149.745 231.795C149.745 231.26 149.627 230.803 149.391 230.423C149.154 230.032 148.831 229.74 148.42 229.544C148.019 229.339 147.572 229.236 147.079 229.236C146.37 229.236 145.763 229.462 145.26 229.914C144.767 230.366 144.484 230.993 144.412 231.795H149.745ZM154.756 229.344V234.322C154.756 234.734 154.844 235.026 155.018 235.201C155.193 235.365 155.496 235.448 155.928 235.448H156.961V236.635H155.697C154.916 236.635 154.33 236.455 153.94 236.095C153.549 235.735 153.354 235.145 153.354 234.322V229.344H152.259V228.188H153.354V226.061H154.756V228.188H156.961V229.344H154.756ZM158.136 232.38C158.136 231.517 158.311 230.762 158.66 230.115C159.009 229.457 159.487 228.948 160.094 228.589C160.71 228.229 161.393 228.049 162.143 228.049C162.883 228.049 163.526 228.208 164.07 228.527C164.615 228.846 165.021 229.246 165.288 229.729V228.188H166.706V236.635H165.288V235.062C165.01 235.556 164.594 235.967 164.039 236.295C163.495 236.614 162.858 236.773 162.128 236.773C161.378 236.773 160.7 236.588 160.094 236.218C159.487 235.848 159.009 235.33 158.66 234.662C158.311 233.994 158.136 233.233 158.136 232.38ZM165.288 232.396C165.288 231.759 165.159 231.204 164.903 230.731C164.646 230.258 164.296 229.899 163.854 229.652C163.423 229.395 162.945 229.267 162.421 229.267C161.897 229.267 161.419 229.39 160.987 229.637C160.556 229.883 160.212 230.243 159.955 230.716C159.698 231.188 159.569 231.743 159.569 232.38C159.569 233.028 159.698 233.593 159.955 234.076C160.212 234.549 160.556 234.913 160.987 235.17C161.419 235.417 161.897 235.54 162.421 235.54C162.945 235.54 163.423 235.417 163.854 235.17C164.296 234.913 164.646 234.549 164.903 234.076C165.159 233.593 165.288 233.033 165.288 232.396ZM169.801 226.816C169.533 226.816 169.307 226.724 169.122 226.539C168.937 226.354 168.845 226.128 168.845 225.86C168.845 225.593 168.937 225.367 169.122 225.182C169.307 224.997 169.533 224.905 169.801 224.905C170.058 224.905 170.273 224.997 170.448 225.182C170.633 225.367 170.725 225.593 170.725 225.86C170.725 226.128 170.633 226.354 170.448 226.539C170.273 226.724 170.058 226.816 169.801 226.816ZM170.479 228.188V236.635H169.076V228.188H170.479ZM174.272 225.229V236.635H172.869V225.229H174.272Z" fill="#3E3E3E" fill-opacity="0.4"/>
<defs>
<linearGradient id="paint0_linear" x1="201.658" y1="47.0649" x2="208.054" y2="169.112" gradientUnits="userSpaceOnUse">
<stop stop-color="#0272FA"/>
<stop offset="1" stop-color="#0272FA" stop-opacity="0"/>
</linearGradient>
</defs>
</svg>
