<svg width="383" height="201" viewBox="0 0 383 201" fill="none" xmlns="http://www.w3.org/2000/svg">
<path d="M44.4622 159.225C44.4622 159.225 58.5498 98.1491 95.9772 98.1491C133.405 98.1491 122.591 159.225 147.492 159.225C172.393 159.225 188.805 60.4519 228.259 60.4519C257.95 60.4519 268.782 130.814 311.475 130.814C346.932 130.814 367.398 109.839 381.654 95.6399" stroke="#E087EE" stroke-width="2.27065" stroke-linecap="round"/>
<path d="M44.4622 159.225C44.4622 159.225 65.7455 109.307 93.5432 109.307C121.341 109.307 121.799 114.019 150.186 114.019C178.573 114.019 184.577 50.234 224.997 50.234C265.416 50.234 276.895 130.586 310.799 130.586C337.211 130.586 343.967 91.1057 363.489 91.1057" stroke="#1780FF" stroke-width="2.27065" stroke-linecap="round"/>
<path d="M356.391 185.193V192.018C356.391 192.863 356.133 193.531 355.615 194.021C355.106 194.512 354.434 194.757 353.599 194.757C352.763 194.757 352.086 194.512 351.569 194.021C351.06 193.531 350.806 192.863 350.806 192.018H352.372C352.381 192.436 352.486 192.768 352.686 193.013C352.895 193.258 353.199 193.381 353.599 193.381C353.998 193.381 354.302 193.258 354.511 193.013C354.72 192.759 354.825 192.427 354.825 192.018V185.193H356.391ZM358.4 190.874C358.4 190.12 358.555 189.453 358.864 188.871C359.181 188.29 359.608 187.84 360.144 187.522C360.689 187.195 361.289 187.032 361.943 187.032C362.533 187.032 363.046 187.15 363.482 187.386C363.927 187.613 364.281 187.899 364.545 188.245V187.155H366.111V194.661H364.545V193.544C364.281 193.898 363.923 194.194 363.468 194.43C363.014 194.666 362.497 194.784 361.915 194.784C361.27 194.784 360.68 194.621 360.144 194.294C359.608 193.957 359.181 193.494 358.864 192.904C358.555 192.304 358.4 191.628 358.4 190.874ZM364.545 190.901C364.545 190.383 364.436 189.934 364.218 189.552C364.009 189.171 363.732 188.88 363.387 188.68C363.042 188.481 362.669 188.381 362.269 188.381C361.87 188.381 361.497 188.481 361.152 188.68C360.807 188.871 360.526 189.157 360.308 189.539C360.099 189.911 359.994 190.356 359.994 190.874C359.994 191.392 360.099 191.846 360.308 192.236C360.526 192.627 360.807 192.927 361.152 193.135C361.507 193.335 361.879 193.435 362.269 193.435C362.669 193.435 363.042 193.335 363.387 193.135C363.732 192.936 364.009 192.645 364.218 192.264C364.436 191.873 364.545 191.419 364.545 190.901ZM371.939 187.032C372.529 187.032 373.056 187.155 373.519 187.4C373.992 187.645 374.359 188.008 374.623 188.49C374.886 188.971 375.018 189.552 375.018 190.234V194.661H373.478V190.465C373.478 189.793 373.31 189.28 372.974 188.926C372.638 188.562 372.18 188.381 371.598 188.381C371.017 188.381 370.554 188.562 370.209 188.926C369.873 189.28 369.705 189.793 369.705 190.465V194.661H368.151V187.155H369.705V188.013C369.959 187.704 370.281 187.463 370.672 187.291C371.071 187.118 371.494 187.032 371.939 187.032Z" fill="#808191"/>
<path d="M261.388 185.193C262.396 185.193 263.277 185.388 264.031 185.779C264.794 186.16 265.38 186.714 265.789 187.441C266.206 188.158 266.415 188.998 266.415 189.961C266.415 190.924 266.206 191.759 265.789 192.468C265.38 193.176 264.794 193.721 264.031 194.103C263.277 194.475 262.396 194.661 261.388 194.661H258.295V185.193H261.388ZM261.388 193.394C262.496 193.394 263.345 193.095 263.936 192.495C264.526 191.896 264.821 191.051 264.821 189.961C264.821 188.862 264.526 188.004 263.936 187.386C263.345 186.769 262.496 186.46 261.388 186.46H259.848V193.394H261.388ZM274.835 190.724C274.835 191.006 274.816 191.26 274.78 191.487H269.044C269.09 192.086 269.312 192.568 269.712 192.931C270.112 193.294 270.602 193.476 271.183 193.476C272.019 193.476 272.609 193.126 272.954 192.427H274.63C274.403 193.117 273.99 193.685 273.39 194.13C272.8 194.566 272.064 194.784 271.183 194.784C270.466 194.784 269.821 194.625 269.249 194.307C268.686 193.98 268.241 193.526 267.914 192.945C267.596 192.354 267.437 191.673 267.437 190.901C267.437 190.129 267.591 189.453 267.9 188.871C268.218 188.281 268.658 187.827 269.222 187.509C269.794 187.191 270.448 187.032 271.183 187.032C271.892 187.032 272.523 187.186 273.077 187.495C273.631 187.804 274.063 188.24 274.371 188.803C274.68 189.357 274.835 189.997 274.835 190.724ZM273.213 190.234C273.204 189.661 273 189.203 272.6 188.858C272.201 188.512 271.706 188.34 271.115 188.34C270.579 188.34 270.121 188.512 269.739 188.858C269.358 189.194 269.131 189.652 269.058 190.234H273.213ZM275.845 190.901C275.845 190.129 276 189.453 276.309 188.871C276.626 188.281 277.062 187.827 277.616 187.509C278.17 187.191 278.806 187.032 279.524 187.032C280.432 187.032 281.181 187.25 281.772 187.686C282.371 188.113 282.775 188.726 282.984 189.525H281.308C281.172 189.153 280.954 188.862 280.655 188.653C280.355 188.444 279.978 188.34 279.524 188.34C278.888 188.34 278.379 188.567 277.998 189.021C277.625 189.466 277.439 190.093 277.439 190.901C277.439 191.71 277.625 192.341 277.998 192.795C278.379 193.249 278.888 193.476 279.524 193.476C280.423 193.476 281.018 193.081 281.308 192.291H282.984C282.766 193.054 282.358 193.662 281.758 194.116C281.159 194.561 280.414 194.784 279.524 194.784C278.806 194.784 278.17 194.625 277.616 194.307C277.062 193.98 276.626 193.526 276.309 192.945C276 192.354 275.845 191.673 275.845 190.901Z" fill="#808191"/>
<path d="M175.189 194.661H173.636L168.963 187.591V194.661H167.41V185.179H168.963L173.636 192.236V185.179H175.189V194.661ZM180.484 194.784C179.776 194.784 179.136 194.625 178.563 194.307C177.991 193.98 177.542 193.526 177.215 192.945C176.888 192.354 176.724 191.673 176.724 190.901C176.724 190.138 176.892 189.462 177.228 188.871C177.564 188.281 178.023 187.827 178.604 187.509C179.186 187.191 179.835 187.032 180.553 187.032C181.27 187.032 181.919 187.191 182.501 187.509C183.082 187.827 183.541 188.281 183.877 188.871C184.213 189.462 184.381 190.138 184.381 190.901C184.381 191.664 184.208 192.341 183.863 192.931C183.518 193.522 183.046 193.98 182.446 194.307C181.856 194.625 181.202 194.784 180.484 194.784ZM180.484 193.435C180.884 193.435 181.256 193.34 181.602 193.149C181.956 192.958 182.242 192.672 182.46 192.291C182.678 191.909 182.787 191.446 182.787 190.901C182.787 190.356 182.682 189.898 182.474 189.525C182.265 189.144 181.988 188.858 181.642 188.667C181.297 188.476 180.925 188.381 180.525 188.381C180.126 188.381 179.753 188.476 179.408 188.667C179.072 188.858 178.804 189.144 178.604 189.525C178.404 189.898 178.305 190.356 178.305 190.901C178.305 191.71 178.509 192.336 178.918 192.781C179.335 193.217 179.858 193.435 180.484 193.435ZM188.818 193.272L190.943 187.155H192.592L189.731 194.661H187.878L185.031 187.155H186.693L188.818 193.272Z" fill="#808191"/>
<path d="M78.6847 192.745C77.9087 192.745 77.1927 192.565 76.5367 192.205C75.8887 191.837 75.3727 191.329 74.9887 190.681C74.6127 190.025 74.4247 189.289 74.4247 188.473C74.4247 187.657 74.6127 186.925 74.9887 186.277C75.3727 185.629 75.8887 185.125 76.5367 184.765C77.1927 184.397 77.9087 184.213 78.6847 184.213C79.4687 184.213 80.1847 184.397 80.8327 184.765C81.4887 185.125 82.0047 185.629 82.3807 186.277C82.7567 186.925 82.9447 187.657 82.9447 188.473C82.9447 189.289 82.7567 190.025 82.3807 190.681C82.0047 191.329 81.4887 191.837 80.8327 192.205C80.1847 192.565 79.4687 192.745 78.6847 192.745ZM78.6847 191.557C79.2367 191.557 79.7287 191.433 80.1607 191.185C80.5927 190.929 80.9287 190.569 81.1687 190.105C81.4167 189.633 81.5407 189.089 81.5407 188.473C81.5407 187.857 81.4167 187.317 81.1687 186.853C80.9287 186.389 80.5927 186.033 80.1607 185.785C79.7287 185.537 79.2367 185.413 78.6847 185.413C78.1327 185.413 77.6407 185.537 77.2087 185.785C76.7767 186.033 76.4367 186.389 76.1887 186.853C75.9487 187.317 75.8287 187.857 75.8287 188.473C75.8287 189.089 75.9487 189.633 76.1887 190.105C76.4367 190.569 76.7767 190.929 77.2087 191.185C77.6407 191.433 78.1327 191.557 78.6847 191.557ZM83.8348 189.349C83.8348 188.669 83.9708 188.073 84.2428 187.561C84.5228 187.041 84.9068 186.641 85.3948 186.361C85.8828 186.081 86.4428 185.941 87.0748 185.941C87.8748 185.941 88.5348 186.133 89.0548 186.517C89.5828 186.893 89.9388 187.433 90.1228 188.137H88.6468C88.5268 187.809 88.3348 187.553 88.0708 187.369C87.8068 187.185 87.4748 187.093 87.0748 187.093C86.5148 187.093 86.0668 187.293 85.7308 187.693C85.4028 188.085 85.2388 188.637 85.2388 189.349C85.2388 190.061 85.4028 190.617 85.7308 191.017C86.0668 191.417 86.5148 191.617 87.0748 191.617C87.8668 191.617 88.3908 191.269 88.6468 190.573H90.1228C89.9308 191.245 89.5708 191.781 89.0428 192.181C88.5148 192.573 87.8588 192.769 87.0748 192.769C86.4428 192.769 85.8828 192.629 85.3948 192.349C84.9068 192.061 84.5228 191.661 84.2428 191.149C83.9708 190.629 83.8348 190.029 83.8348 189.349ZM93.0821 187.165V190.825C93.0821 191.073 93.1381 191.253 93.2501 191.365C93.3701 191.469 93.5701 191.521 93.8501 191.521H94.6901V192.661H93.6101C92.9941 192.661 92.5221 192.517 92.1941 192.229C91.8661 191.941 91.7021 191.473 91.7021 190.825V187.165H90.9221V186.049H91.7021V184.405H93.0821V186.049H94.6901V187.165H93.0821Z" fill="#808191"/>
<path d="M6.34251 7.65016C6.2426 7.23236 6.06095 6.91901 5.79756 6.71011C5.53416 6.50121 5.16632 6.39676 4.69402 6.39676C3.9765 6.39676 3.44062 6.67378 3.0864 7.22781C2.73218 7.77277 2.54599 8.68103 2.52782 9.95259C2.76397 9.55296 3.10911 9.24415 3.56324 9.02617C4.01737 8.80819 4.50783 8.6992 5.03462 8.6992C5.63407 8.6992 6.16086 8.83089 6.61499 9.09429C7.0782 9.3486 7.43697 9.72099 7.69128 10.2114C7.95468 10.7019 8.08637 11.2877 8.08637 11.9689C8.08637 12.6047 7.95922 13.1724 7.7049 13.6719C7.45967 14.1715 7.09183 14.5666 6.60137 14.8572C6.11091 15.1388 5.52054 15.2795 4.83026 15.2795C3.89475 15.2795 3.15906 15.0752 2.62319 14.6665C2.0964 14.2487 1.72401 13.6628 1.50603 12.909C1.29713 12.1551 1.19268 11.2151 1.19268 10.0888C1.19268 6.7646 2.36433 5.10249 4.70765 5.10249C5.61591 5.10249 6.32889 5.34772 6.8466 5.83818C7.37339 6.32864 7.6822 6.93263 7.77302 7.65016H6.34251ZM4.69402 10.0071C4.13998 10.0071 3.66769 10.1751 3.27714 10.5112C2.89567 10.8381 2.70493 11.315 2.70493 11.9417C2.70493 12.5684 2.88204 13.0679 3.23626 13.4403C3.59957 13.8036 4.10365 13.9853 4.74852 13.9853C5.32072 13.9853 5.77031 13.8082 6.09728 13.4539C6.43334 13.0997 6.60137 12.6274 6.60137 12.0371C6.60137 11.4194 6.43788 10.929 6.11091 10.5657C5.79302 10.1933 5.32072 10.0071 4.69402 10.0071ZM9.74306 10.1842C9.74306 8.61291 10.0065 7.38676 10.5332 6.50575C11.0691 5.61565 11.9865 5.1706 13.2853 5.1706C14.5841 5.1706 15.4969 5.61565 16.0237 6.50575C16.5596 7.38676 16.8275 8.61291 16.8275 10.1842C16.8275 11.7737 16.5596 13.018 16.0237 13.9172C15.4969 14.8072 14.5841 15.2523 13.2853 15.2523C11.9865 15.2523 11.0691 14.8072 10.5332 13.9172C10.0065 13.018 9.74306 11.7737 9.74306 10.1842ZM15.3016 10.1842C15.3016 9.44851 15.2517 8.82635 15.1518 8.31773C15.0609 7.8091 14.8702 7.39584 14.5795 7.07795C14.2889 6.75098 13.8575 6.58749 13.2853 6.58749C12.7131 6.58749 12.2816 6.75098 11.991 7.07795C11.7004 7.39584 11.5051 7.8091 11.4052 8.31773C11.3144 8.82635 11.2689 9.44851 11.2689 10.1842C11.2689 10.9471 11.3144 11.5875 11.4052 12.1052C11.496 12.6229 11.6867 13.0407 11.9774 13.3586C12.2771 13.6765 12.7131 13.8354 13.2853 13.8354C13.8575 13.8354 14.2889 13.6765 14.5795 13.3586C14.8793 13.0407 15.0745 12.6229 15.1654 12.1052C15.2562 11.5875 15.3016 10.9471 15.3016 10.1842Z" fill="#808191"/>
<path d="M0.811209 68.8398V67.6682L5.38884 61.1014H7.26894V67.491H8.53596V68.8398H7.26894V70.9106H5.74306V68.8398H0.811209ZM5.81118 62.6818L2.59594 67.491H5.81118V62.6818ZM9.82289 65.8153C9.82289 64.244 10.0863 63.0179 10.6131 62.1369C11.1489 61.2468 12.0663 60.8017 13.3651 60.8017C14.6639 60.8017 15.5767 61.2468 16.1035 62.1369C16.6394 63.0179 16.9073 64.244 16.9073 65.8153C16.9073 67.4048 16.6394 68.6491 16.1035 69.5483C15.5767 70.4383 14.6639 70.8834 13.3651 70.8834C12.0663 70.8834 11.1489 70.4383 10.6131 69.5483C10.0863 68.6491 9.82289 67.4048 9.82289 65.8153ZM15.3814 65.8153C15.3814 65.0796 15.3315 64.4575 15.2316 63.9488C15.1408 63.4402 14.95 63.0269 14.6594 62.7091C14.3687 62.3821 13.9373 62.2186 13.3651 62.2186C12.7929 62.2186 12.3615 62.3821 12.0708 62.7091C11.7802 63.0269 11.5849 63.4402 11.485 63.9488C11.3942 64.4575 11.3488 65.0796 11.3488 65.8153C11.3488 66.5782 11.3942 67.2186 11.485 67.7363C11.5758 68.254 11.7666 68.6718 12.0572 68.9897C12.3569 69.3076 12.7929 69.4665 13.3651 69.4665C13.9373 69.4665 14.3687 69.3076 14.6594 68.9897C14.9591 68.6718 15.1544 68.254 15.2452 67.7363C15.336 67.2186 15.3814 66.5782 15.3814 65.8153Z" fill="#808191"/>
<path d="M1.86025 125.565C2.73218 124.811 3.41792 124.194 3.91746 123.712C4.42608 123.222 4.84843 122.713 5.18448 122.186C5.52054 121.66 5.68857 121.133 5.68857 120.606C5.68857 120.061 5.55687 119.634 5.29347 119.325C5.03916 119.017 4.63498 118.862 4.08095 118.862C3.54507 118.862 3.12727 119.035 2.82755 119.38C2.5369 119.716 2.3825 120.17 2.36433 120.742H0.865704C0.892952 119.707 1.20176 118.917 1.79213 118.372C2.39158 117.818 3.14998 117.541 4.06732 117.541C5.05733 117.541 5.82935 117.813 6.38339 118.358C6.94651 118.903 7.22807 119.63 7.22807 120.538C7.22807 121.192 7.06004 121.823 6.72398 122.432C6.39701 123.031 6.00192 123.572 5.5387 124.053C5.08457 124.525 4.50329 125.075 3.79484 125.701L3.18177 126.246H7.50054V127.541H0.879328V126.41L1.86025 125.565ZM8.86496 122.582C8.86496 121.01 9.12835 119.784 9.65514 118.903C10.191 118.013 11.1084 117.568 12.4072 117.568C13.706 117.568 14.6188 118.013 15.1456 118.903C15.6815 119.784 15.9494 121.01 15.9494 122.582C15.9494 124.171 15.6815 125.415 15.1456 126.314C14.6188 127.205 13.706 127.65 12.4072 127.65C11.1084 127.65 10.191 127.205 9.65514 126.314C9.12835 125.415 8.86496 124.171 8.86496 122.582ZM14.4235 122.582C14.4235 121.846 14.3736 121.224 14.2736 120.715C14.1828 120.206 13.9921 119.793 13.7014 119.475C13.4108 119.148 12.9794 118.985 12.4072 118.985C11.835 118.985 11.4035 119.148 11.1129 119.475C10.8223 119.793 10.627 120.206 10.5271 120.715C10.4362 121.224 10.3908 121.846 10.3908 122.582C10.3908 123.344 10.4362 123.985 10.5271 124.503C10.6179 125.02 10.8086 125.438 11.0993 125.756C11.399 126.074 11.835 126.233 12.4072 126.233C12.9794 126.233 13.4108 126.074 13.7014 125.756C14.0012 125.438 14.1964 125.02 14.2873 124.503C14.3781 123.985 14.4235 123.344 14.4235 122.582Z" fill="#808191"/>
<path d="M1.00194 189.566C1.00194 187.995 1.26534 186.768 1.79213 185.887C2.328 184.997 3.24535 184.552 4.54416 184.552C5.84297 184.552 6.75577 184.997 7.28256 185.887C7.81844 186.768 8.08637 187.995 8.08637 189.566C8.08637 191.155 7.81844 192.4 7.28256 193.299C6.75577 194.189 5.84297 194.634 4.54416 194.634C3.24535 194.634 2.328 194.189 1.79213 193.299C1.26534 192.4 1.00194 191.155 1.00194 189.566ZM6.5605 189.566C6.5605 188.83 6.51054 188.208 6.41063 187.699C6.31981 187.191 6.12907 186.777 5.83843 186.46C5.54779 186.133 5.11636 185.969 4.54416 185.969C3.97195 185.969 3.54053 186.133 3.24989 186.46C2.95924 186.777 2.76397 187.191 2.66406 187.699C2.57323 188.208 2.52782 188.83 2.52782 189.566C2.52782 190.329 2.57323 190.969 2.66406 191.487C2.75489 192.004 2.94562 192.422 3.23626 192.74C3.53599 193.058 3.97195 193.217 4.54416 193.217C5.11636 193.217 5.54779 193.058 5.83843 192.74C6.13815 192.422 6.33343 192.004 6.42426 191.487C6.51508 190.969 6.5605 190.329 6.5605 189.566Z" fill="#808191"/>
</svg>
