<svg width="56" height="56" viewBox="0 0 56 56" fill="none" xmlns="http://www.w3.org/2000/svg">
<rect x="1.30405" y="1.17215" width="53.3603" height="53.3603" rx="13.0562" stroke="white" stroke-opacity="0.2" stroke-width="1.13533"/>
<path fill-rule="evenodd" clip-rule="evenodd" d="M30.3456 31.9284L33.2861 28.9879H22.3075V26.7173H33.2861L30.3456 23.7768L31.9578 22.176L37.6344 27.8526L31.9578 33.5292L30.3456 31.9284ZM35.9314 17.6345C37.1855 17.6345 38.2021 18.6511 38.2021 19.9052V25.2071L35.9314 22.9365V19.9052H20.0369V35.7997H35.9314V32.7684L38.2021 30.4978V35.7997C38.2021 37.0538 37.1855 38.0704 35.9314 38.0704H20.0369C18.7767 38.0704 17.7662 37.0486 17.7662 35.7997V19.9052C17.7662 18.645 18.7767 17.6345 20.0369 17.6345H35.9314Z" fill="white"/>
</svg>
