<svg width="29" height="29" viewBox="0 0 29 29" fill="none" xmlns="http://www.w3.org/2000/svg">
<path fill-rule="evenodd" clip-rule="evenodd" d="M25.4213 20.6089C26.2968 18.8755 26.752 16.9543 26.7472 15.0066V14.349C26.3942 7.91391 21.3139 2.83364 14.9515 2.48264L14.2195 2.48063C12.2747 2.47556 10.3529 2.93074 8.6139 3.8091C4.37522 5.92751 1.69367 10.2636 1.69183 15.0078C1.68725 16.7657 2.05852 18.5045 2.7783 20.1065L0.440801 27.119C0.0971656 28.1499 1.07794 29.1307 2.10884 28.787L9.12134 26.4495C10.7233 27.1693 12.4624 27.5406 14.223 27.536C18.9642 27.5342 23.3003 24.8526 25.4213 20.6089ZM8.79121 23.7789L3.77666 25.4504L5.44818 20.4359C5.55937 20.1023 5.53274 19.7382 5.37422 19.4243C4.68314 18.0561 4.32502 16.5441 4.32901 15.0112C4.33047 11.2629 6.44748 7.83965 9.79776 6.16524C11.171 5.47165 12.683 5.11352 14.2159 5.11752L14.8786 5.11752C19.8261 5.39248 23.8346 9.40096 24.1116 14.4211L24.1096 15.0112C24.1136 16.5441 23.7554 18.0561 23.0644 19.4243C21.3874 22.7796 17.9642 24.8966 14.2188 24.8981C12.683 24.9021 11.171 24.544 9.80276 23.8529C9.48892 23.6944 9.12477 23.6677 8.79121 23.7789Z" fill="black"/>
<path fill-rule="evenodd" clip-rule="evenodd" d="M23.776 9.99105C26.2841 9.99105 28.3173 7.95784 28.3173 5.44975C28.3173 2.94166 26.2841 0.908447 23.776 0.908447C21.2679 0.908447 19.2347 2.94166 19.2347 5.44975C19.2347 7.95784 21.2679 9.99105 23.776 9.99105Z" fill="#FF5D6D"/>
</svg>
