<svg width="38" height="41" viewBox="0 0 38 41" fill="none" xmlns="http://www.w3.org/2000/svg">
<path fill-rule="evenodd" clip-rule="evenodd" d="M21.3393 25.803V22.397C21.3393 18.0078 17.7812 14.4497 13.3921 14.4497C9.00291 14.4497 5.44479 18.0078 5.44479 22.397V25.803C5.44479 29.5495 2.03882 30.4578 2.03882 32.6149C2.03882 34.545 6.46659 36.0209 13.3921 36.0209C20.3176 36.0209 24.7453 34.545 24.7453 32.6149C24.7453 30.4578 21.3393 29.5495 21.3393 25.803Z" stroke="#11142D" stroke-width="2.27065" stroke-linecap="round" stroke-linejoin="round"/>
<path d="M13.3922 38.2916C12.2444 38.2916 11.1658 38.253 10.1508 38.1781C10.5949 39.5947 11.9075 40.5589 13.3922 40.5589C14.8768 40.5589 16.1894 39.5947 16.6335 38.1781C15.6185 38.253 14.54 38.2916 13.3922 38.2916Z" fill="#1B1D21"/>
<circle cx="25.313" cy="12.7467" r="11.9209" fill="#1F95EE"/>
<path d="M23.2907 16.079C24.1626 15.3524 24.8574 14.7484 25.3751 14.267C25.8928 13.7766 26.3243 13.2679 26.6694 12.7411C27.0145 12.2143 27.1871 11.6966 27.1871 11.188C27.1871 10.7248 27.0781 10.3615 26.8601 10.0981C26.6422 9.8347 26.3061 9.703 25.852 9.703C25.3978 9.703 25.0482 9.85741 24.8029 10.1662C24.5577 10.4659 24.4305 10.8792 24.4215 11.406H22.5686C22.6049 10.3161 22.9274 9.48956 23.5359 8.92644C24.1535 8.36332 24.9346 8.08176 25.8792 8.08176C26.9146 8.08176 27.7094 8.35878 28.2634 8.91282C28.8174 9.45777 29.0945 10.1798 29.0945 11.079C29.0945 11.7875 28.9037 12.4641 28.5223 13.109C28.1408 13.7538 27.7048 14.317 27.2144 14.7983C26.7239 15.2706 26.0836 15.8428 25.2934 16.515H29.3124V18.0953H22.5822V16.6784L23.2907 16.079Z" fill="white"/>
</svg>
