<svg width="23" height="24" viewBox="0 0 23 24" fill="none" xmlns="http://www.w3.org/2000/svg">
<path fill-rule="evenodd" clip-rule="evenodd" d="M10.9632 0.314575C4.93653 0.314575 0.0509644 5.09224 0.0509644 10.9858C0.0509644 16.8793 4.93653 21.657 10.9632 21.657C13.5408 21.657 15.9096 20.7831 17.7768 19.3216L21.3236 22.7811L21.4179 22.8605C21.7472 23.0988 22.2141 23.0717 22.512 22.7795C22.8398 22.4582 22.8391 21.9378 22.5105 21.6173L19.0054 18.1986C20.7876 16.2992 21.8754 13.7667 21.8754 10.9858C21.8754 5.09224 16.9898 0.314575 10.9632 0.314575ZM10.9632 1.95838C16.0616 1.95838 20.1946 6.00016 20.1946 10.9859C20.1946 15.9717 16.0616 20.0135 10.9632 20.0135C5.86478 20.0135 1.73172 15.9717 1.73172 10.9859C1.73172 6.00016 5.86478 1.95838 10.9632 1.95838Z" fill="#11142D"/>
</svg>
