<svg width="21" height="16" viewBox="0 0 21 16" fill="none" xmlns="http://www.w3.org/2000/svg">
<path d="M9.75923 1.12408L9.75923 6.8007C9.75923 7.27097 9.378 7.6522 8.90774 7.6522C8.47666 7.6522 8.1204 7.33186 8.06402 6.91625L8.05624 6.8007L8.05624 4.813L1.52812 4.81388C1.05786 4.81388 0.676631 4.43266 0.676631 3.96239C0.676631 3.53131 0.996967 3.17505 1.41258 3.11867L1.52812 3.1109L8.05624 3.11001V1.12408C8.05624 0.692999 8.37658 0.336739 8.7922 0.280356L8.90774 0.272583C9.33882 0.272583 9.69508 0.592919 9.75146 1.00853L9.75923 1.12408Z" fill="black"/>
<path d="M11.4622 11.9096C11.4622 12.3407 11.1419 12.6969 10.7263 12.7533L10.6107 12.7611L1.52812 12.7611C1.05786 12.7611 0.67663 12.3799 0.67663 11.9096C0.67663 11.4785 0.996966 11.1223 1.41258 11.0659L1.52812 11.0581L10.6107 11.0581C11.081 11.0581 11.4622 11.4393 11.4622 11.9096Z" fill="black"/>
<path d="M20.5448 3.96233C20.5448 4.39341 20.2245 4.74967 19.8089 4.80605L19.6933 4.81383L12.8814 4.81383C12.4111 4.81383 12.0299 4.4326 12.0299 3.96233C12.0299 3.53126 12.3502 3.175 12.7658 3.11861L12.8814 3.11084L19.6933 3.11084C20.1636 3.11084 20.5448 3.49207 20.5448 3.96233Z" fill="black"/>
<path d="M20.5448 11.9097C20.5448 12.3407 20.2245 12.697 19.8089 12.7534L19.6933 12.7611L15.4359 12.7603V14.748C15.4359 15.179 15.1155 15.5353 14.6999 15.5917L14.5844 15.5995C14.1533 15.5995 13.797 15.2791 13.7406 14.8635L13.7329 14.748V9.07134C13.7329 8.60108 14.1141 8.21985 14.5844 8.21985C15.0154 8.21985 15.3717 8.54019 15.4281 8.9558L15.4359 9.07134V11.0573L19.6933 11.0582C20.1636 11.0582 20.5448 11.4394 20.5448 11.9097Z" fill="black"/>
</svg>
