<svg width="28" height="31" viewBox="0 0 28 31" fill="none" xmlns="http://www.w3.org/2000/svg">
<path fill-rule="evenodd" clip-rule="evenodd" d="M26.1093 9.26108L25.2353 7.73001C24.4958 6.4345 22.8571 5.98757 21.572 6.73092V6.73092C20.9603 7.0947 20.2303 7.19791 19.5431 7.01779C18.8559 6.83767 18.2679 6.38902 17.9088 5.77076C17.6777 5.37779 17.5536 4.9302 17.5489 4.47325V4.47325C17.5697 3.74064 17.2959 3.03071 16.7899 2.50519C16.2838 1.97966 15.5885 1.68329 14.8625 1.68359H13.1016C12.3903 1.68359 11.7083 1.96971 11.2066 2.47864C10.7048 2.98758 10.4246 3.67738 10.4281 4.3954V4.3954C10.407 5.87786 9.21039 7.06843 7.74168 7.06828C7.28901 7.06353 6.84562 6.93821 6.45633 6.70497V6.70497C5.17121 5.96162 3.53253 6.40855 2.79309 7.70406L1.85479 9.26108C1.11624 10.555 1.55295 12.2081 2.83165 12.959V12.959C3.66283 13.4434 4.17485 14.3387 4.17485 15.3075C4.17485 16.2763 3.66283 17.1716 2.83165 17.656V17.656C1.55457 18.4018 1.11739 20.0509 1.85479 21.3409V21.3409L2.74168 22.885C3.08813 23.516 3.66943 23.9817 4.35693 24.179C5.04443 24.3762 5.78146 24.2888 6.40492 23.936V23.936C7.01781 23.575 7.74817 23.476 8.43365 23.6612C9.11913 23.8464 9.70294 24.3003 10.0553 24.9221C10.2863 25.315 10.4105 25.7626 10.4152 26.2196V26.2196C10.4152 27.7173 11.6179 28.9314 13.1016 28.9314H14.8625C16.3411 28.9314 17.5418 27.7252 17.5489 26.2326V26.2326C17.5454 25.5123 17.8274 24.8205 18.3319 24.3112C18.8364 23.8019 19.5217 23.5173 20.2353 23.5208C20.6868 23.533 21.1284 23.6578 21.5206 23.8841V23.8841C22.8024 24.6296 24.44 24.1888 25.1838 22.898V22.898L26.1093 21.3409C26.4675 20.7203 26.5658 19.981 26.3825 19.287C26.1991 18.5929 25.7492 18.0012 25.1324 17.643V17.643C24.5156 17.2848 24.0657 16.6932 23.8824 15.9991C23.699 15.305 23.7974 14.5658 24.1556 13.9451C24.3885 13.5345 24.7257 13.1941 25.1324 12.959V12.959C26.4035 12.2085 26.8392 10.565 26.1093 9.27405V9.27405V9.26108Z" stroke="white" stroke-width="2.27065" stroke-linecap="round" stroke-linejoin="round"/>
<circle cx="13.9842" cy="15.3076" r="3.40598" stroke="white" stroke-width="2.27065" stroke-linecap="round" stroke-linejoin="round"/>
</svg>
